<svg width="402" height="400" viewBox="0 0 402 400" fill="none" xmlns="http://www.w3.org/2000/svg">
<rect x="2" width="400" height="400" rx="100" fill="white"/>
<path d="M300.692 0C314.969 0 328.547 2.99574 340.833 8.39328L260.716 96.8394V0H300.692Z M140.789 96.2117V0H100.814C82.2609 0 64.8889 5.05853 50 13.8724L140.789 96.2117Z M61.3779 391.913C73.4769 397.118 86.8089 400 100.814 400H140.789V304.246L61.3779 391.913Z M260.716 400H300.692C320.291 400 338.572 394.355 354 384.601L260.716 300V400Z" fill="#0B208B"/>
<path d="M242 0H162V120H2V280H162V400H242V280H402V120H242V0Z M354.616 16L277.525 101.054H312.73L374.835 32.534C368.86 26.1848 362.064 20.617 354.616 16Z M72.544 100.205H36.7834L6 72.3036C8.38861 64.0661 11.8082 56.2667 16.1098 49.0544L72.544 100.205Z M49.9305 385.562L127.296 300.205H92.84L29.996 369.541C35.9142 375.69 42.6121 381.083 49.9305 385.562Z M336.511 300.205L389.693 348.408C393.678 341.177 396.795 333.4 398.902 325.219L371.304 300.205H336.511Z" fill="#EF1313"/>
<path d="M113.8 130.4C113.8 132 112.667 133.4 110.4 134.6C106.8 136.6 101.133 138.733 93.4 141C85.8 143.267 79.5333 144.867 74.6 145.8C66.8667 147.267 59.0667 148.467 51.2 149.4C43.4667 150.2 38.4667 150.667 36.2 150.8C36.3333 158.533 36.5333 166.533 36.8 174.8C37.0667 182.933 37.2667 188.533 37.4 191.6C42.6 190.933 50.4 189.667 60.8 187.8L68.4 186.6C76.8 185.133 83.2667 182.467 87.8 178.6C90.2 176.733 91.9333 175.8 93 175.8C93.9333 175.8 94.6667 176.333 95.2 177.4C95.8667 178.333 96.2 179.333 96.2 180.4C96.2 182.8 93.4667 185.467 88 188.4C82.6667 191.2 76.7333 193.267 70.2 194.6C64.7333 195.8 58.6 196.933 51.8 198C45 199.067 40.5333 199.733 38.4 200C39.2 222.8 41.5333 239.733 45.4 250.8C49.2667 252.133 53.0667 253.133 56.8 253.8C60.5333 254.333 65.3333 254.6 71.2 254.6C77.0667 254.6 82.6667 253.867 88 252.4C93.3333 250.8 97.6 248.867 100.8 246.6C104.133 244.333 105.8 242.2 105.8 240.2C105.8 239.133 105.6 238.133 105.2 237.2C104.8 236.133 104.267 235.067 103.6 234C103.333 233.6 102.867 233 102.2 232.2C101.667 231.267 101.4 230.533 101.4 230C101.4 228.667 102.867 228 105.8 228C107.933 228 109.733 228.933 111.2 230.8C112.8 232.533 113.6 234.467 113.6 236.6C113.6 240.867 111.667 245.067 107.8 249.2C104.067 253.333 98.8667 256.667 92.2 259.2C85.6667 261.867 78.4 263.2 70.4 263.2C62.2667 263.2 55.6 262.733 50.4 261.8C45.2 261 41.2667 259.333 38.6 256.8C35.4 253.2 33.1333 246.933 31.8 238C30.6 229.067 29.5333 217.133 28.6 202.2C26.0667 202.867 23.2 203.467 20 204C16.9333 204.4 14.6 204.6 13 204.6C11.4 204.6 10.0667 204.133 9 203.2C8.06667 202.133 7.6 200.867 7.6 199.4C7.6 198.467 7.73333 197.667 8 197C8.4 196.333 8.93333 195.933 9.6 195.8C14 195.267 17.2 194.933 19.2 194.8L27.8 193.8C27.2667 176.6 26.7333 162.6 26.2 151.8C24.2 151.8 22.6 151.867 21.4 152L12.2 152.2C11 152.2 10.0667 151.867 9.4 151.2C8.73333 150.533 8.4 149.8 8.4 149C8.4 145.8 10.5333 143.667 14.8 142.6C16.4 142.333 18.4 142.067 20.8 141.8C23.3333 141.4 25 141.2 25.8 141.2C28.3333 138.4 31.1333 137 34.2 137C34.7333 137 35.1333 137.467 35.4 138.4C35.8 139.2 36 139.8 36 140.2C44.8 139.8 55.2667 138.8 67.4 137.2C75.4 136.133 87.7333 133.6 104.4 129.6L111.8 128C113.133 128 113.8 128.8 113.8 130.4ZM235.159 256.6C235.159 258.2 232.559 259 227.359 259C226.426 259 220.159 251.867 208.559 237.6C197.093 223.2 187.626 210.933 180.159 200.8C179.093 199.333 175.693 194.467 169.959 186.2C161.559 173.933 156.359 166.533 154.359 164L153.959 179.4L153.759 194.4C153.759 203.867 153.626 214.133 153.359 225.2C153.226 236.267 153.026 245.067 152.759 251.6C152.626 253.2 151.893 254.667 150.559 256C149.359 257.333 148.093 258 146.759 258C145.293 258 144.226 257.6 143.559 256.8C143.026 255.867 142.759 254.133 142.759 251.6C142.759 250 143.026 245.067 143.559 236.8C144.759 221.467 145.359 208.6 145.359 198.2C145.359 189.933 145.493 182.133 145.759 174.8C146.026 167.333 146.159 162.733 146.159 161L146.359 155.2V154.6C146.359 153.133 146.559 152 146.959 151.2C147.493 150.267 148.493 149.8 149.959 149.8H150.959C152.426 149.8 155.293 152.467 159.559 157.8C163.959 163 169.493 170.133 176.159 179.2C177.626 181.067 179.026 182.933 180.359 184.8C181.693 186.533 182.959 188.2 184.159 189.8C191.759 199.533 195.759 204.667 196.159 205.2C215.093 229.333 225.426 243.067 227.159 246.4C226.893 245.333 226.426 242.867 225.759 239C225.093 235.133 224.426 230.067 223.759 223.8C223.226 217.533 222.959 211.067 222.959 204.4C222.959 192.533 221.826 176.867 219.559 157.4C218.893 151 218.559 147.067 218.559 145.6C218.559 140.533 221.426 138 227.159 138C228.493 138 229.493 139.4 230.159 142.2C230.826 144.867 231.293 150.6 231.559 159.4C231.826 168.2 231.959 182.267 231.959 201.6C231.959 207.733 232.159 213.733 232.559 219.6C233.093 225.467 233.559 230.667 233.959 235.2C234.626 241.467 234.959 246.2 234.959 249.4L235.159 256.6ZM388.245 276.8C388.512 281.333 388.979 284.533 389.645 286.4C390.312 288.4 391.045 289.8 391.845 290.6C392.645 291.533 393.045 292.333 393.045 293C393.045 293.933 392.512 294.667 391.445 295.2C390.512 295.733 389.445 296 388.245 296C385.312 296 382.845 295.133 380.845 293.4C378.979 291.8 378.045 289.4 378.045 286.2C378.045 269.4 378.179 255.667 378.445 245L378.845 227.2C379.245 214.8 379.445 205.533 379.445 199.4C366.112 229.133 353.045 251.533 340.245 266.6C327.445 281.8 313.112 289.4 297.245 289.4C285.512 289.4 276.912 285.8 271.445 278.6C265.979 271.4 263.245 260.2 263.245 245C263.245 224.6 267.845 204.667 277.045 185.2C286.245 165.6 298.045 149.667 312.445 137.4C326.979 125.133 341.645 119 356.445 119C361.112 119 364.245 120.467 365.845 123.4C367.579 126.333 368.445 129.4 368.445 132.6C368.445 135.933 368.112 138.6 367.445 140.6C366.912 142.467 366.245 143.4 365.445 143.4C364.779 143.4 364.245 142.8 363.845 141.6C363.579 140.4 363.245 138.267 362.845 135.2C362.445 132.267 361.779 130.133 360.845 128.8C359.912 127.333 358.245 126.6 355.845 126.6C343.579 126.6 330.912 132.6 317.845 144.6C304.912 156.6 294.112 171.8 285.445 190.2C276.912 208.467 272.645 226.333 272.645 243.8C272.645 254.867 274.445 263.467 278.045 269.6C281.779 275.867 288.445 279 298.045 279C308.445 279 318.112 274.933 327.045 266.8C335.979 258.667 343.912 248.667 350.845 236.8C357.912 224.8 366.245 208.933 375.845 189.2C369.045 190.533 359.512 193.2 347.245 197.2C342.045 198.933 339.445 199.8 339.445 199.8L332.045 202.2C327.112 203.933 323.112 205.267 320.045 206.2C316.979 207 314.445 207.4 312.445 207.4C311.112 207.4 310.045 206.8 309.245 205.6C308.579 204.267 308.245 202.867 308.245 201.4C308.245 199.533 310.979 197.667 316.445 195.8C321.912 193.8 330.112 191.6 341.045 189.2C345.312 188.267 351.445 186.667 359.445 184.4C360.779 184 364.779 182.933 371.445 181.2C378.245 179.467 382.979 178.6 385.645 178.6C385.912 178.6 386.645 178.6 387.845 178.6C389.179 178.6 390.112 179.133 390.645 180.2C391.179 181.133 391.445 182.667 391.445 184.8C391.445 186 390.645 187.067 389.045 188L388.845 203.4C388.445 213.8 388.245 225.133 388.245 237.4V265.8V276.8Z" fill="black"/>
</svg>
