<svg width="38" height="44" viewBox="0 0 38 44" fill="none" xmlns="http://www.w3.org/2000/svg">
<path d="M28.9474 44H9.05273C8.4144 44.0019 7.79834 43.7907 7.32551 43.4079C6.85269 43.0252 6.55728 42.4985 6.49725 41.9313L2.51495 5.50002H35.4852L31.503 41.9308C31.443 42.4981 31.1476 43.0249 30.6748 43.4078C30.2019 43.7906 29.5858 44.0019 28.9474 44V44Z" fill="#E6E6E6"/>
<path d="M35.4324 10.0833H2.56759C1.88688 10.0826 1.23427 9.84095 0.752925 9.41133C0.271585 8.98172 0.000804545 8.39923 0 7.79166V2.29165C0.000804545 1.68408 0.271585 1.1016 0.752925 0.671981C1.23427 0.242366 1.88688 0.000714762 2.56759 0H35.4324C36.1131 0.000714768 36.7657 0.242365 37.2471 0.671981C37.7284 1.1016 37.9992 1.68408 38 2.29165V7.79166C37.9992 8.39923 37.7284 8.98172 37.2471 9.41133C36.7657 9.84095 36.1131 10.0826 35.4324 10.0833V10.0833Z" fill="#CCCCCC"/>
</svg>
