<svg width="384" height="448" viewBox="0 0 384 448" fill="none" xmlns="http://www.w3.org/2000/svg">
<path d="M0 0L34.9 395.8L192 448L349.1 395.8L384 0H0Z" fill="#1572B6"/>
<path d="M192 36V64.1161V412L318.08 368.189L346 36H192Z" fill="#33A9DC"/>
<path d="M308.3 127.3L313.1 80H70.9L76.7 127.3H199.6L193.1 130L81 176.7L84.6 223L84.8 222.9V223L251.1 223.5L247.4 285.1L192.7 300.5L140.1 287.2L136.9 248.9H88L94.4 322.8L193.2 352L291.4 323.3L304.2 176.7H192.7L193 176.6L308.3 127.3Z" fill="#EBFFFB"/>
</svg>
