<svg width="400" height="400" viewBox="0 0 400 400" fill="none" xmlns="http://www.w3.org/2000/svg">
<path d="M400 133H0V266.333H400V133Z" fill="#DD0000"/>
<path d="M400 266H0V349.333C0 376.948 22.3858 399.333 50 399.333H350C377.614 399.333 400 376.948 400 349.333V266Z" fill="#FFCE00"/>
<path d="M350 0H50C22.3858 0 0 22.3858 0 50V133.333H400V50C400 22.3858 377.614 0 350 0Z" fill="black"/>
<path d="M124.146 181.532C124.146 211.364 117.348 231.626 103.752 242.318C98.076 246.806 91.938 249.908 85.338 251.624C78.738 253.208 70.092 254 59.4 254H9.108L8.514 247.07C9.042 246.674 11.748 245.816 16.632 244.496C21.516 243.176 24.42 242.516 25.344 242.516C24.552 191.036 23.892 152.756 23.364 127.676C17.424 126.884 11.616 125.3 5.94 122.924C6.204 118.436 6.534 115.928 6.93 115.4H56.826C70.554 115.4 81.378 116.654 89.298 119.162C97.35 121.67 104.346 126.29 110.286 133.022C119.526 143.186 124.146 159.356 124.146 181.532ZM104.94 183.116C104.94 165.296 101.574 151.898 94.842 142.922C88.242 133.814 77.088 129.26 61.38 129.26H41.184C40.656 153.548 39.996 190.64 39.204 240.536H59.994C78.078 240.536 90.09 236.51 96.03 228.458C101.97 220.274 104.94 205.16 104.94 183.116ZM175.228 129.062L174.238 176.78H205.522L207.106 162.524C210.802 162.524 214.762 163.646 218.986 165.89V203.51L212.056 204.104C210.076 198.428 208.756 193.676 208.096 189.848H174.238C173.974 201.332 173.71 218.294 173.446 240.734H218.788L223.54 222.122L235.024 222.914C236.872 230.438 237.796 237.104 237.796 242.912C237.796 248.588 237.664 252.284 237.4 254H141.172L140.578 247.07C146.386 244.958 151.996 243.44 157.408 242.516C156.616 191.036 155.956 152.756 155.428 127.676C152.524 127.412 146.716 125.828 138.004 122.924L138.994 115.4H234.43C234.694 117.116 234.826 119.756 234.826 123.32C234.826 130.58 233.902 138.434 232.054 146.882C229.15 147.542 225.322 147.872 220.57 147.872L215.818 129.062H175.228ZM326.644 256.376C319.12 256.376 312.586 255.782 307.042 254.594C301.498 253.406 296.152 251.228 291.004 248.06C280.312 241.724 274.768 229.118 274.372 210.242C274.108 191.366 273.448 163.646 272.392 127.082C267.112 126.026 261.172 124.442 254.572 122.33L255.166 115.4H304.864C307.108 119.624 308.23 123.584 308.23 127.28C304.402 127.544 298.924 127.808 291.796 128.072C291.532 143.384 291.4 166.352 291.4 196.976C291.4 213.476 294.436 224.96 300.508 231.428C306.712 237.896 315.49 241.13 326.842 241.13C331.726 241.13 335.95 240.602 339.514 239.546C343.21 238.49 346.84 236.444 350.404 233.408C357.532 227.336 361.096 215.06 361.096 196.58C361.096 196.448 360.502 173.612 359.314 128.072C349.018 125.036 343.078 123.122 341.494 122.33L342.088 115.4H391.192C393.304 120.812 394.36 124.706 394.36 127.082C386.044 127.082 380.698 127.148 378.322 127.28C378.058 137.84 377.728 152.822 377.332 172.226C377.068 191.498 376.87 204.17 376.738 210.242C376.342 225.29 371.722 236.774 362.878 244.694C354.034 252.482 341.956 256.376 326.644 256.376Z" fill="white"/>
</svg>
