<svg width="400" height="400" viewBox="0 0 400 400" fill="none" xmlns="http://www.w3.org/2000/svg">
<rect width="400" height="400" rx="50" fill="#C80A0A"/>
<rect y="100" width="400" height="200" fill="#EC8E00"/>
<path d="M132.8 130.4C132.8 132 131.667 133.4 129.4 134.6C125.8 136.6 120.133 138.733 112.4 141C104.8 143.267 98.5333 144.867 93.6 145.8C85.8667 147.267 78.0667 148.467 70.2 149.4C62.4667 150.2 57.4667 150.667 55.2 150.8C55.3333 158.533 55.5333 166.533 55.8 174.8C56.0667 182.933 56.2667 188.533 56.4 191.6C61.6 190.933 69.4 189.667 79.8 187.8L87.4 186.6C95.8 185.133 102.267 182.467 106.8 178.6C109.2 176.733 110.933 175.8 112 175.8C112.933 175.8 113.667 176.333 114.2 177.4C114.867 178.333 115.2 179.333 115.2 180.4C115.2 182.8 112.467 185.467 107 188.4C101.667 191.2 95.7333 193.267 89.2 194.6C83.7333 195.8 77.6 196.933 70.8 198C64 199.067 59.5333 199.733 57.4 200C58.2 222.8 60.5333 239.733 64.4 250.8C68.2667 252.133 72.0667 253.133 75.8 253.8C79.5333 254.333 84.3333 254.6 90.2 254.6C96.0667 254.6 101.667 253.867 107 252.4C112.333 250.8 116.6 248.867 119.8 246.6C123.133 244.333 124.8 242.2 124.8 240.2C124.8 239.133 124.6 238.133 124.2 237.2C123.8 236.133 123.267 235.067 122.6 234C122.333 233.6 121.867 233 121.2 232.2C120.667 231.267 120.4 230.533 120.4 230C120.4 228.667 121.867 228 124.8 228C126.933 228 128.733 228.933 130.2 230.8C131.8 232.533 132.6 234.467 132.6 236.6C132.6 240.867 130.667 245.067 126.8 249.2C123.067 253.333 117.867 256.667 111.2 259.2C104.667 261.867 97.4 263.2 89.4 263.2C81.2667 263.2 74.6 262.733 69.4 261.8C64.2 261 60.2667 259.333 57.6 256.8C54.4 253.2 52.1333 246.933 50.8 238C49.6 229.067 48.5333 217.133 47.6 202.2C45.0667 202.867 42.2 203.467 39 204C35.9333 204.4 33.6 204.6 32 204.6C30.4 204.6 29.0667 204.133 28 203.2C27.0667 202.133 26.6 200.867 26.6 199.4C26.6 198.467 26.7333 197.667 27 197C27.4 196.333 27.9333 195.933 28.6 195.8C33 195.267 36.2 194.933 38.2 194.8L46.8 193.8C46.2667 176.6 45.7333 162.6 45.2 151.8C43.2 151.8 41.6 151.867 40.4 152L31.2 152.2C30 152.2 29.0667 151.867 28.4 151.2C27.7333 150.533 27.4 149.8 27.4 149C27.4 145.8 29.5333 143.667 33.8 142.6C35.4 142.333 37.4 142.067 39.8 141.8C42.3333 141.4 44 141.2 44.8 141.2C47.3333 138.4 50.1333 137 53.2 137C53.7333 137 54.1333 137.467 54.4 138.4C54.8 139.2 55 139.8 55 140.2C63.8 139.8 74.2667 138.8 86.4 137.2C94.4 136.133 106.733 133.6 123.4 129.6L130.8 128C132.133 128 132.8 128.8 132.8 130.4ZM239.559 223C239.559 229.667 237.293 236.267 232.759 242.8C228.359 249.2 222.093 254.4 213.959 258.4C205.959 262.533 196.826 264.6 186.559 264.6C177.893 264.6 171.026 263.867 165.959 262.4C160.893 261.067 158.359 259.133 158.359 256.6C158.359 255.267 159.293 253.067 161.159 250C163.159 246.8 164.693 245.2 165.759 245.2C167.359 245.2 168.159 245.533 168.159 246.2C168.159 246.6 167.893 247.067 167.359 247.6C166.959 248.133 166.759 248.667 166.759 249.2C166.759 249.6 167.559 250.2 169.159 251C170.893 251.8 173.493 252.533 176.959 253.2C180.426 253.867 184.626 254.2 189.559 254.2C197.426 254.2 204.293 252.667 210.159 249.6C216.159 246.533 220.759 242.667 223.959 238C227.159 233.333 228.759 228.8 228.759 224.4C228.759 218.667 225.959 213.733 220.359 209.6C214.893 205.467 206.026 201.533 193.759 197.8C181.893 193.933 172.693 190.733 166.159 188.2C159.759 185.533 154.559 182.333 150.559 178.6C146.559 174.733 144.559 170.067 144.559 164.6C144.559 157.267 148.693 150.067 156.959 143C165.226 135.8 175.426 130 187.559 125.6C199.693 121.067 210.959 118.8 221.359 118.8C226.693 118.8 229.559 119.867 229.959 122C230.359 124.133 230.559 126.533 230.559 129.2C230.559 131.2 229.826 132.2 228.359 132.2C227.693 132.2 226.893 132 225.959 131.6C225.159 131.067 224.426 130.667 223.759 130.4C222.959 130.133 222.026 129.867 220.959 129.6C219.893 129.333 218.359 129.2 216.359 129.2C209.426 129.2 201.093 131 191.359 134.6C181.626 138.2 173.159 142.667 165.959 148C158.893 153.333 155.359 158.467 155.359 163.4C155.359 167.4 156.959 170.867 160.159 173.8C163.493 176.733 167.893 179.267 173.359 181.4C178.826 183.4 186.559 185.933 196.559 189C211.226 193.267 222.026 198.067 228.959 203.4C236.026 208.733 239.559 215.267 239.559 223ZM352.52 161.2C352.52 169.067 349.32 175.867 342.92 181.6C336.52 187.2 327.587 192.533 316.12 197.6C311.987 199.467 307.787 201.2 303.52 202.8C299.254 204.4 296.454 205.4 295.12 205.8C295.787 222.067 296.12 235.933 296.12 247.4C296.12 251.133 296.52 254.2 297.32 256.6C298.254 258.867 298.72 260.333 298.72 261C298.72 262.467 297.987 263.667 296.52 264.6C295.054 265.667 293.52 266.2 291.92 266.2C289.92 266.2 288.654 264.8 288.12 262C288.12 261.733 287.92 260.533 287.52 258.4C287.254 256.267 287.12 253.267 287.12 249.4C287.12 239 286.72 221.933 285.92 198.2C285.52 186.2 285.32 177.667 285.32 172.6C285.32 168.333 285.387 164.4 285.52 160.8C285.654 157.067 285.72 154.533 285.72 153.2C277.32 155.467 270.054 157.8 263.92 160.2C261.92 161.133 259.12 162.667 255.52 164.8C253.92 165.733 252.32 166.6 250.72 167.4C249.254 168.2 248.12 168.6 247.32 168.6C246.254 168.6 245.32 168.133 244.52 167.2C243.72 166.267 243.32 165.133 243.32 163.8C243.32 162.067 245.854 159.933 250.92 157.4C255.987 154.733 262.12 152.2 269.32 149.8C276.654 147.4 283.387 145.6 289.52 144.4C296.72 143.067 304.72 142.4 313.52 142.4C325.654 142.4 335.187 144 342.12 147.2C349.054 150.267 352.52 154.933 352.52 161.2ZM343.32 162.8C343.32 158.267 340.454 155.067 334.72 153.2C328.987 151.333 321.92 150.4 313.52 150.4C307.387 150.4 301.12 150.8 294.72 151.6C294.587 152.667 294.387 155.133 294.12 159C293.987 162.867 293.92 166.533 293.92 170L294.12 184.6C294.254 187.8 294.32 191.867 294.32 196.8C297.12 196.533 303.054 194.533 312.12 190.8C320.92 186.933 328.32 182.667 334.32 178C340.32 173.2 343.32 168.133 343.32 162.8Z" fill="black"/>
</svg>
