<svg width="850" height="400" viewBox="0 0 850 400" fill="none" xmlns="http://www.w3.org/2000/svg">
<path d="M812.263 399.842L761.173 341.231L201.733 334.525L200.881 329.984L33.2687 381.677L32.3927 386.459L0.626638 386.264C-0.145973 386.226 -0.204438 15.2121 0.45288 14.1655C0.728308 13.7286 5.25055 13.4718 16.9526 13.2288L33.0725 12.894L50.9448 18.4314C83.1503 28.4093 167.731 54.5182 185.482 59.9616L202.857 65.2894C202.857 65.2894 760.075 58.0486 760.657 57.8088L811.542 0H850V399.983L830.763 399.921C818.505 399.882 812.914 400.17 812.281 399.838L812.263 399.842Z" fill="#EAEAEA"/>
</svg>
