<svg width="449" height="448" viewBox="0 0 449 448" fill="none" xmlns="http://www.w3.org/2000/svg">
<path d="M335.298 99.7669L244.001 8.44666C238.587 3.03809 231.248 0 223.596 0C215.943 0 208.604 3.03809 203.191 8.44666L162.531 49.0767L214.051 100.597C241.111 91.4567 266.731 117.367 257.441 144.277L274.114 160.95L335.298 99.7669Z M240.221 194.844L254.153 180.911L240.221 166.997V194.844Z M111.796 99.7756L212.001 199.98V164.847C191.201 156.337 187.401 134.107 193.361 119.847L142.571 68.9966L111.796 99.7756Z" fill="#FF8080"/>
<path d="M190.309 202.329C202.024 214.045 202.024 233.04 190.309 244.756L99.7867 335.278L8.45081 243.947C3.03979 238.535 0 231.195 0 223.542C0 215.889 3.03979 208.549 8.45081 203.137L99.7765 111.797L190.309 202.329Z" fill="#80B3FF"/>
<path d="M347.317 111.789L286.135 172.971L307.101 193.937C341.331 182.137 368.281 224.937 342.571 250.627C316.081 277.117 272.361 247.757 286.571 213.287L266.182 192.924L257.717 202.908C247.775 214.632 248.304 231.974 258.942 243.07L348.214 336.193L439.551 244.857C444.962 239.445 448.002 232.105 448.002 224.452C448.002 216.799 444.962 209.459 439.551 204.047L347.317 111.789Z" fill="#8DD35F"/>
<path d="M111.808 347.298L212.001 247.105V287.847C189.681 296.937 183.181 326.247 200.751 343.847C207.19 350.282 215.922 353.898 225.026 353.898C234.13 353.898 242.861 350.282 249.301 343.847C262.481 330.697 265.521 301.387 240.221 288.847V252.242L336.193 348.214L244.861 439.547C239.449 444.955 232.111 447.992 224.461 447.992C216.81 447.992 209.473 444.955 204.061 439.547L111.808 347.298Z" fill="#FFE680"/>
</svg>
