<svg width="400" height="400" viewBox="0 0 400 400" xmlns="http://www.w3.org/2000/svg">
<path d="M200 50C200 22.3858 222.386 0 250 0H350C377.614 0 400 22.3858 400 50V350C400 377.614 377.614 400 350 400H250C222.386 400 200 377.614 200 350V50Z" fill="#C80A0A"/>
<path d="M200 100H400V300H200V100Z" fill="#EC8E00"/>
<path d="M0 50C0 22.3858 22.3858 0 50 0H150C177.614 0 200 22.3858 200 50V350C200 377.614 177.614 400 150 400H50C22.3858 400 0 377.614 0 350V50Z" fill="#FFFFFF"/>
<path d="M149.422 0C156.565 0 163.359 2.99574 169.505 8.39328L129.422 96.8394V0H149.422Z M69.4223 96.2117V0H49.4223C40.1403 0 31.449 5.05853 24 13.8724L69.4223 96.2117Z M29.6924 391.913C35.7456 397.118 42.4157 400 49.4223 400H69.4223V304.246L29.6924 391.913Z M129.422 400H149.422C159.228 400 168.374 394.355 176.093 384.601L129.422 300V400Z" fill="#0B208B"/>
<path d="M120 0H80V120H0V280H80V400H120V280H200V120H120V0ZM176.308 16L137.763 101.054H155.365L186.418 32.534C183.43 26.1848 180.032 20.617 176.308 16ZM35.272 100.205H17.3917L2 72.3036C3.19431 64.0661 4.90408 56.2667 7.0549 49.0544L35.272 100.205ZM23.9653 385.562L62.648 300.205H45.42L13.998 369.541C16.9571 375.69 20.306 381.083 23.9653 385.562ZM167.255 300.205L193.846 348.408C195.839 341.177 197.397 333.4 198.451 325.219L184.652 300.205H167.255Z" fill="#EF1313"/>
<path d="M273.624 171.752C273.624 172.52 273.08 173.192 271.992 173.768C270.264 174.728 267.544 175.752 263.832 176.84C260.184 177.928 257.176 178.696 254.808 179.144C251.096 179.848 247.352 180.424 243.576 180.872C239.864 181.256 237.464 181.48 236.376 181.544C236.44 185.256 236.536 189.096 236.664 193.064C236.792 196.968 236.888 199.656 236.952 201.128C239.448 200.808 243.192 200.2 248.184 199.304L251.832 198.728C255.864 198.024 258.968 196.744 261.144 194.888C262.296 193.992 263.128 193.544 263.64 193.544C264.088 193.544 264.44 193.8 264.696 194.312C265.016 194.76 265.176 195.24 265.176 195.752C265.176 196.904 263.864 198.184 261.24 199.592C258.68 200.936 255.832 201.928 252.696 202.568C250.072 203.144 247.128 203.688 243.864 204.2C240.6 204.712 238.456 205.032 237.432 205.16C237.816 216.104 238.936 224.232 240.792 229.544C242.648 230.184 244.472 230.664 246.264 230.984C248.056 231.24 250.36 231.368 253.176 231.368C255.992 231.368 258.68 231.016 261.24 230.312C263.8 229.544 265.848 228.616 267.384 227.528C268.984 226.44 269.784 225.416 269.784 224.456C269.784 223.944 269.688 223.464 269.496 223.016C269.304 222.504 269.048 221.992 268.728 221.48C268.6 221.288 268.376 221 268.056 220.616C267.8 220.168 267.672 219.816 267.672 219.56C267.672 218.92 268.376 218.6 269.784 218.6C270.808 218.6 271.672 219.048 272.376 219.944C273.144 220.776 273.528 221.704 273.528 222.728C273.528 224.776 272.6 226.792 270.744 228.776C268.952 230.76 266.456 232.36 263.256 233.576C260.12 234.856 256.632 235.496 252.792 235.496C248.888 235.496 245.688 235.272 243.192 234.824C240.696 234.44 238.808 233.64 237.528 232.424C235.992 230.696 234.904 227.688 234.264 223.4C233.688 219.112 233.176 213.384 232.728 206.216C231.512 206.536 230.136 206.824 228.6 207.08C227.128 207.272 226.008 207.368 225.24 207.368C224.472 207.368 223.832 207.144 223.32 206.696C222.872 206.184 222.648 205.576 222.648 204.872C222.648 204.424 222.712 204.04 222.84 203.72C223.032 203.4 223.288 203.208 223.608 203.144C225.72 202.888 227.256 202.728 228.216 202.664L232.344 202.184C232.088 193.928 231.832 187.208 231.576 182.024C230.616 182.024 229.848 182.056 229.272 182.12L224.856 182.216C224.28 182.216 223.832 182.056 223.512 181.736C223.192 181.416 223.032 181.064 223.032 180.68C223.032 179.144 224.056 178.12 226.104 177.608C226.872 177.48 227.832 177.352 228.984 177.224C230.2 177.032 231 176.936 231.384 176.936C232.6 175.592 233.944 174.92 235.416 174.92C235.672 174.92 235.864 175.144 235.992 175.592C236.184 175.976 236.28 176.264 236.28 176.456C240.504 176.264 245.528 175.784 251.352 175.016C255.192 174.504 261.112 173.288 269.112 171.368L272.664 170.6C273.304 170.6 273.624 170.984 273.624 171.752ZM324.869 216.2C324.869 219.4 323.781 222.568 321.605 225.704C319.493 228.776 316.485 231.272 312.581 233.192C308.741 235.176 304.357 236.168 299.429 236.168C295.269 236.168 291.973 235.816 289.541 235.112C287.109 234.472 285.893 233.544 285.893 232.328C285.893 231.688 286.341 230.632 287.237 229.16C288.197 227.624 288.933 226.856 289.445 226.856C290.213 226.856 290.597 227.016 290.597 227.336C290.597 227.528 290.469 227.752 290.213 228.008C290.021 228.264 289.924 228.52 289.924 228.776C289.924 228.968 290.309 229.256 291.077 229.64C291.909 230.024 293.157 230.376 294.821 230.696C296.485 231.016 298.501 231.176 300.869 231.176C304.645 231.176 307.941 230.44 310.757 228.968C313.637 227.496 315.845 225.64 317.381 223.4C318.917 221.16 319.685 218.984 319.685 216.872C319.685 214.12 318.341 211.752 315.653 209.768C313.029 207.784 308.773 205.896 302.885 204.104C297.189 202.248 292.773 200.712 289.637 199.496C286.565 198.216 284.069 196.68 282.148 194.888C280.229 193.032 279.269 190.792 279.269 188.168C279.269 184.648 281.253 181.192 285.221 177.8C289.189 174.344 294.085 171.56 299.909 169.448C305.733 167.272 311.141 166.184 316.133 166.184C318.693 166.184 320.069 166.696 320.261 167.72C320.453 168.744 320.549 169.896 320.549 171.176C320.549 172.136 320.197 172.616 319.493 172.616C319.173 172.616 318.789 172.52 318.341 172.328C317.957 172.072 317.605 171.88 317.285 171.752C316.901 171.624 316.453 171.496 315.941 171.368C315.429 171.24 314.693 171.176 313.733 171.176C310.405 171.176 306.405 172.04 301.733 173.768C297.061 175.496 292.997 177.64 289.541 180.2C286.149 182.76 284.453 185.224 284.453 187.592C284.453 189.512 285.221 191.176 286.757 192.584C288.357 193.992 290.469 195.208 293.093 196.232C295.717 197.192 299.429 198.408 304.229 199.88C311.269 201.928 316.453 204.232 319.781 206.792C323.173 209.352 324.869 212.488 324.869 216.2ZM379.09 186.536C379.09 190.312 377.554 193.576 374.482 196.328C371.41 199.016 367.122 201.576 361.618 204.008C359.634 204.904 357.618 205.736 355.57 206.504C353.522 207.272 352.178 207.752 351.538 207.944C351.858 215.752 352.018 222.408 352.018 227.912C352.018 229.704 352.21 231.176 352.594 232.328C353.042 233.416 353.266 234.12 353.266 234.44C353.266 235.144 352.914 235.72 352.21 236.168C351.506 236.68 350.77 236.936 350.002 236.936C349.042 236.936 348.434 236.264 348.178 234.92C348.178 234.792 348.082 234.216 347.89 233.192C347.762 232.168 347.698 230.728 347.698 228.872C347.698 223.88 347.506 215.688 347.122 204.296C346.93 198.536 346.834 194.44 346.834 192.008C346.834 189.96 346.866 188.072 346.93 186.344C346.994 184.552 347.026 183.336 347.026 182.696C342.994 183.784 339.506 184.904 336.562 186.056C335.602 186.504 334.258 187.24 332.53 188.264C331.762 188.712 330.994 189.128 330.226 189.512C329.522 189.896 328.978 190.088 328.594 190.088C328.082 190.088 327.634 189.864 327.25 189.416C326.866 188.968 326.674 188.424 326.674 187.784C326.674 186.952 327.89 185.928 330.322 184.712C332.754 183.432 335.698 182.216 339.154 181.064C342.674 179.912 345.906 179.048 348.85 178.472C352.306 177.832 356.146 177.512 360.37 177.512C366.194 177.512 370.77 178.28 374.098 179.816C377.426 181.288 379.09 183.528 379.09 186.536ZM374.674 187.304C374.674 185.128 373.298 183.592 370.546 182.696C367.794 181.8 364.402 181.352 360.37 181.352C357.426 181.352 354.418 181.544 351.346 181.928C351.282 182.44 351.186 183.624 351.058 185.48C350.994 187.336 350.962 189.096 350.962 190.76L351.058 197.768C351.122 199.304 351.154 201.256 351.154 203.624C352.498 203.496 355.346 202.536 359.698 200.744C363.922 198.888 367.474 196.84 370.354 194.6C373.234 192.296 374.674 189.864 374.674 187.304Z M58.624 171.752C58.624 172.52 58.08 173.192 56.992 173.768C55.264 174.728 52.544 175.752 48.832 176.84C45.184 177.928 42.176 178.696 39.808 179.144C36.096 179.848 32.352 180.424 28.576 180.872C24.864 181.256 22.464 181.48 21.376 181.544C21.44 185.256 21.536 189.096 21.664 193.064C21.792 196.968 21.888 199.656 21.952 201.128C24.448 200.808 28.192 200.2 33.184 199.304L36.832 198.728C40.864 198.024 43.968 196.744 46.144 194.888C47.296 193.992 48.128 193.544 48.64 193.544C49.088 193.544 49.44 193.8 49.696 194.312C50.016 194.76 50.176 195.24 50.176 195.752C50.176 196.904 48.864 198.184 46.24 199.592C43.68 200.936 40.832 201.928 37.696 202.568C35.072 203.144 32.128 203.688 28.864 204.2C25.6 204.712 23.456 205.032 22.432 205.16C22.816 216.104 23.936 224.232 25.792 229.544C27.648 230.184 29.472 230.664 31.264 230.984C33.056 231.24 35.36 231.368 38.176 231.368C40.992 231.368 43.68 231.016 46.24 230.312C48.8 229.544 50.848 228.616 52.384 227.528C53.984 226.44 54.784 225.416 54.784 224.456C54.784 223.944 54.688 223.464 54.496 223.016C54.304 222.504 54.048 221.992 53.728 221.48C53.6 221.288 53.376 221 53.056 220.616C52.8 220.168 52.672 219.816 52.672 219.56C52.672 218.92 53.376 218.6 54.784 218.6C55.808 218.6 56.672 219.048 57.376 219.944C58.144 220.776 58.528 221.704 58.528 222.728C58.528 224.776 57.6 226.792 55.744 228.776C53.952 230.76 51.456 232.36 48.256 233.576C45.12 234.856 41.632 235.496 37.792 235.496C33.888 235.496 30.688 235.272 28.192 234.824C25.696 234.44 23.808 233.64 22.528 232.424C20.992 230.696 19.904 227.688 19.264 223.4C18.688 219.112 18.176 213.384 17.728 206.216C16.512 206.536 15.136 206.824 13.6 207.08C12.128 207.272 11.008 207.368 10.24 207.368C9.472 207.368 8.832 207.144 8.32 206.696C7.872 206.184 7.648 205.576 7.648 204.872C7.648 204.424 7.712 204.04 7.84 203.72C8.032 203.4 8.288 203.208 8.608 203.144C10.72 202.888 12.256 202.728 13.216 202.664L17.344 202.184C17.088 193.928 16.832 187.208 16.576 182.024C15.616 182.024 14.848 182.056 14.272 182.12L9.856 182.216C9.28 182.216 8.832 182.056 8.512 181.736C8.192 181.416 8.032 181.064 8.032 180.68C8.032 179.144 9.056 178.12 11.104 177.608C11.872 177.48 12.832 177.352 13.984 177.224C15.2 177.032 16 176.936 16.384 176.936C17.6 175.592 18.944 174.92 20.416 174.92C20.672 174.92 20.864 175.144 20.992 175.592C21.184 175.976 21.28 176.264 21.28 176.456C25.504 176.264 30.528 175.784 36.352 175.016C40.192 174.504 46.112 173.288 54.112 171.368L57.664 170.6C58.304 170.6 58.624 170.984 58.624 171.752ZM116.877 232.328C116.877 233.096 115.629 233.48 113.133 233.48C112.685 233.48 109.677 230.056 104.109 223.208C98.6045 216.296 94.0605 210.408 90.4765 205.544C89.9645 204.84 88.3325 202.504 85.5805 198.536C81.5485 192.648 79.0525 189.096 78.0925 187.88L77.9005 195.272L77.8045 202.472C77.8045 207.016 77.7405 211.944 77.6125 217.256C77.5485 222.568 77.4525 226.792 77.3245 229.928C77.2605 230.696 76.9085 231.4 76.2685 232.04C75.6925 232.68 75.0845 233 74.4445 233C73.7405 233 73.2285 232.808 72.9085 232.424C72.6525 231.976 72.5245 231.144 72.5245 229.928C72.5245 229.16 72.6525 226.792 72.9085 222.824C73.4845 215.464 73.7725 209.288 73.7725 204.296C73.7725 200.328 73.8365 196.584 73.9645 193.064C74.0925 189.48 74.1565 187.272 74.1565 186.44L74.2525 183.656V183.368C74.2525 182.664 74.3485 182.12 74.5405 181.736C74.7965 181.288 75.2765 181.064 75.9805 181.064H76.4605C77.1645 181.064 78.5405 182.344 80.5885 184.904C82.7005 187.4 85.3565 190.824 88.5565 195.176C89.2605 196.072 89.9325 196.968 90.5725 197.864C91.2125 198.696 91.8205 199.496 92.3965 200.264C96.0445 204.936 97.9645 207.4 98.1565 207.656C107.245 219.24 112.205 225.832 113.037 227.432C112.909 226.92 112.685 225.736 112.365 223.88C112.045 222.024 111.725 219.592 111.405 216.584C111.149 213.576 111.021 210.472 111.021 207.272C111.021 201.576 110.477 194.056 109.389 184.712C109.069 181.64 108.909 179.752 108.909 179.048C108.909 176.616 110.285 175.4 113.037 175.4C113.677 175.4 114.157 176.072 114.477 177.416C114.797 178.696 115.021 181.448 115.149 185.672C115.277 189.896 115.341 196.648 115.341 205.928C115.341 208.872 115.437 211.752 115.629 214.568C115.885 217.384 116.109 219.88 116.301 222.056C116.621 225.064 116.781 227.336 116.781 228.872L116.877 232.328ZM190.358 242.024C190.486 244.2 190.71 245.736 191.03 246.632C191.35 247.592 191.702 248.264 192.086 248.648C192.47 249.096 192.662 249.48 192.662 249.8C192.662 250.248 192.406 250.6 191.894 250.856C191.446 251.112 190.934 251.24 190.358 251.24C188.95 251.24 187.766 250.824 186.806 249.992C185.91 249.224 185.462 248.072 185.462 246.536C185.462 238.472 185.526 231.88 185.654 226.76L185.846 218.216C186.038 212.264 186.134 207.816 186.134 204.872C179.734 219.144 173.462 229.896 167.318 237.128C161.174 244.424 154.294 248.072 146.678 248.072C141.046 248.072 136.918 246.344 134.294 242.888C131.67 239.432 130.358 234.056 130.358 226.76C130.358 216.968 132.566 207.4 136.982 198.056C141.398 188.648 147.062 181 153.974 175.112C160.95 169.224 167.99 166.28 175.094 166.28C177.334 166.28 178.838 166.984 179.606 168.392C180.438 169.8 180.854 171.272 180.854 172.808C180.854 174.408 180.694 175.688 180.374 176.648C180.118 177.544 179.798 177.992 179.414 177.992C179.094 177.992 178.838 177.704 178.646 177.128C178.518 176.552 178.358 175.528 178.166 174.056C177.974 172.648 177.654 171.624 177.206 170.984C176.758 170.28 175.958 169.928 174.806 169.928C168.918 169.928 162.838 172.808 156.566 178.568C150.358 184.328 145.174 191.624 141.014 200.456C136.918 209.224 134.87 217.8 134.87 226.184C134.87 231.496 135.734 235.624 137.462 238.568C139.254 241.576 142.454 243.08 147.062 243.08C152.054 243.08 156.694 241.128 160.982 237.224C165.27 233.32 169.078 228.52 172.406 222.824C175.798 217.064 179.798 209.448 184.406 199.976C181.142 200.616 176.566 201.896 170.678 203.816C168.182 204.648 166.934 205.064 166.934 205.064L163.382 206.216C161.014 207.048 159.094 207.688 157.622 208.136C156.15 208.52 154.934 208.712 153.974 208.712C153.334 208.712 152.822 208.424 152.438 207.848C152.118 207.208 151.958 206.536 151.958 205.832C151.958 204.936 153.27 204.04 155.894 203.144C158.518 202.184 162.454 201.128 167.702 199.976C169.75 199.528 172.694 198.76 176.534 197.672C177.174 197.48 179.094 196.968 182.294 196.136C185.558 195.304 187.83 194.888 189.11 194.888C189.238 194.888 189.59 194.888 190.166 194.888C190.806 194.888 191.254 195.144 191.51 195.656C191.766 196.104 191.894 196.84 191.894 197.864C191.894 198.44 191.51 198.952 190.742 199.4L190.646 206.792C190.454 211.784 190.358 217.224 190.358 223.112V236.744V242.024Z" fill="black"/>
</svg>
