<svg width="850" height="400" viewBox="0 0 850 400" fill="none" xmlns="http://www.w3.org/2000/svg">
<path d="M850 0.5C850 0.776142 849.776 1 849.5 1C849.224 1 849 0.776142 849 0.5C849 0.223858 849.224 0 849.5 0C849.776 0 850 0.223858 850 0.5ZM758 341.382C762.135 346.421 807.17 397.971 808.274 398.917L808.274 398.919C809.823 400.246 810.613 400.343 811.028 399.256C811.424 398.22 811.028 0.750278 811.028 0.750278L758.861 57.5299L758 341.382ZM24.0071 378.185L24.0071 378.19L24 378.188L24.0071 378.185ZM24.0071 378.185C24.0006 376.647 24.1459 21 24.1459 21L196.175 76.262V325.671L24.0071 378.185ZM0.5 14C0.776154 14 1 13.7761 1 13.5C1 13.2239 0.776154 13 0.5 13C0.223846 13 0 13.2239 0 13.5C0 13.7761 0.223846 14 0.5 14Z" fill="#D9D9D9"/>
</svg>
