<svg width="68" height="72" viewBox="0 0 68 72" fill="none" xmlns="http://www.w3.org/2000/svg">
<path d="M24.3064 69.4525C14.036 55.7912 5.91692 40.6386 0.231063 24.5208C-0.0983198 23.5567 -0.0749002 22.507 0.297164 21.5585C0.669229 20.6101 1.3658 19.8244 2.26286 19.3414L37.4081 0.509843C37.9767 0.20287 38.6078 0.0297045 39.2534 0.00349578C39.899 -0.022713 40.5421 0.0987213 41.1337 0.358598C41.7362 0.620445 42.2712 1.01633 42.6977 1.5161C43.1242 2.01587 43.4311 2.60634 43.595 3.2426C47.6856 18.7742 55.3748 33.1248 66.0406 45.1334C66.4797 45.6221 66.8014 46.2046 66.9813 46.8366C67.1612 47.4685 67.1946 48.1331 67.0788 48.7799C66.9676 49.4163 66.7125 50.0191 66.3331 50.5421C65.9536 51.0651 65.4599 51.4946 64.8895 51.798L29.7442 70.6296C28.8452 71.109 27.8053 71.2538 26.8095 71.0382C25.8137 70.8227 24.9267 70.2608 24.3064 69.4525V69.4525Z" fill="#CCCCCC"/>
<path d="M26.7048 67.6504C26.8938 67.8864 27.1594 68.0489 27.4555 68.1101C27.7516 68.1712 28.0597 68.1271 28.3268 67.9854L63.4723 49.1534C63.643 49.0645 63.7907 48.9371 63.904 48.7815C64.0172 48.6259 64.0928 48.4461 64.1249 48.2564C64.1616 48.056 64.1513 47.85 64.095 47.6543C64.0386 47.4586 63.9376 47.2786 63.8 47.1284C52.8199 34.7661 44.9041 19.9927 40.693 4.00348C40.6443 3.80592 40.5506 3.62231 40.419 3.46704C40.2875 3.31177 40.1218 3.18903 39.935 3.10846C39.759 3.02973 39.5671 2.99292 39.3744 3.00088C39.1818 3.00885 38.9936 3.0614 38.8246 3.15438L3.67985 21.9859C3.41363 22.1297 3.20601 22.3621 3.09288 22.6427C2.97974 22.9234 2.96819 23.2347 3.06022 23.523C8.64433 39.3523 16.6181 54.2337 26.7048 67.6505V67.6504Z" fill="white"/>
<path d="M39.7154 27.3845L20.5738 35.8341C19.8458 36.1545 19.0204 36.173 18.2788 35.8857C17.5371 35.5983 16.9398 35.0284 16.6178 34.3011L16.1444 33.2286C15.824 32.5006 15.8054 31.6752 16.0928 30.9336C16.3802 30.1919 16.9501 29.5946 17.6774 29.2726L36.819 20.823C37.547 20.5026 38.3723 20.4841 39.114 20.7715C39.8556 21.0589 40.453 21.6287 40.775 22.356L41.2484 23.4285C41.5688 24.1565 41.5873 24.9819 41.2999 25.7235C41.0125 26.4652 40.4427 27.0625 39.7154 27.3845V27.3845Z" fill="#CCCCCC"/>
<path d="M46.7154 40.3845L27.5738 48.8341C26.8458 49.1545 26.0204 49.173 25.2788 48.8857C24.5371 48.5983 23.9398 48.0284 23.6178 47.3011L23.1444 46.2285C22.824 45.5006 22.8054 44.6752 23.0928 43.9336C23.3802 43.1919 23.9501 42.5945 24.6774 42.2726L43.819 33.823C44.547 33.5026 45.3723 33.4841 46.114 33.7715C46.8556 34.0589 47.453 34.6287 47.775 35.356L48.2484 36.4285C48.5688 37.1565 48.5873 37.9819 48.2999 38.7235C48.0125 39.4652 47.4427 40.0625 46.7154 40.3845V40.3845Z" fill="#CCCCCC"/>
</svg>
