<svg width="165" height="211" viewBox="0 0 165 211" fill="none" xmlns="http://www.w3.org/2000/svg">
<path d="M68.4152 102.955C62.0863 105.18 55.2911 105.737 48.6844 104.574C42.0776 103.41 35.8818 100.564 30.6941 96.3106C17.4821 85.2215 13.3397 66.9521 9.96924 50.0356L0 0L20.8716 14.3714C35.8813 24.7065 51.229 35.3727 61.6217 50.3426C72.0143 65.3124 76.5507 85.7476 68.2005 101.946" fill="#008900"/>
<path d="M91 112.837C93.3361 116.393 96.5471 119.287 100.324 121.239C104.101 123.192 108.316 124.137 112.563 123.984C123.478 123.465 132.579 115.834 140.77 108.59L165 87.1627L148.964 86.394C137.432 85.8413 125.602 85.3257 114.618 88.8877C103.634 92.4497 93.5042 101.022 91.4957 112.41" fill="#008900"/>
<path d="M66.6872 163.125L66.6311 163.534C66.5233 163.916 66.2691 164.241 65.9237 164.437C65.5782 164.633 65.1694 164.685 64.7859 164.582C64.4099 164.464 64.0927 164.208 63.8982 163.866C63.7037 163.523 63.6466 163.119 63.7382 162.736C64.9011 154.266 66.0551 145.785 66.5996 137.247C67.4999 123.13 66.6609 108.644 61.436 95.354C56.7054 83.4036 48.3019 73.2642 37.4371 66.3977C35.8069 65.3687 37.3139 62.7737 38.9513 63.8072C45.2304 67.7634 50.7714 72.7844 55.3251 78.6447C63.9041 89.7061 68.118 103.197 69.434 117.009C70.1783 124.821 70.0006 132.641 69.3717 140.441C78.7804 124.234 90.1144 107.713 108.847 102.035C114.654 100.28 120.744 99.6516 126.787 100.183C128.692 100.347 128.216 103.282 126.315 103.118C116.185 102.277 106.074 104.951 97.6856 110.689C89.6133 116.182 83.3281 123.818 78.0083 131.915C74.7814 136.827 71.8877 141.946 68.9966 147.059L68.9117 147.209C68.846 147.326 68.7713 147.428 68.6896 147.517C68.1137 152.736 67.3989 157.942 66.6872 163.125Z" fill="#005900"/>
<path d="M84.1109 211H44.8891C43.6306 211.002 42.4161 210.755 41.4839 210.308C40.5517 209.861 39.9694 209.245 39.851 208.582L32 166H97L89.1492 208.581C89.031 209.245 88.4486 209.86 87.5164 210.308C86.5842 210.755 85.3696 211.002 84.1109 211Z" fill="#812E00"/>
<path d="M96.9324 171H32.0676C30.7241 170.999 29.436 170.712 28.486 170.2C27.536 169.689 27.0016 168.996 27 168.273V161.727C27.0016 161.004 27.536 160.311 28.486 159.8C29.436 159.288 30.7241 159.001 32.0676 159H96.9324C98.2759 159.001 99.5639 159.288 100.514 159.8C101.464 160.311 101.998 161.004 102 161.727V168.273C101.998 168.996 101.464 169.689 100.514 170.2C99.5639 170.712 98.2759 170.999 96.9324 171Z" fill="#4B1B00"/>
</svg>
