<svg width="854" height="399" viewBox="0 0 854 399" fill="none" xmlns="http://www.w3.org/2000/svg">
<path d="M32.2432 199.12V12.8698L815.352 0.00405884V199.12V398.236L32.4559 384.748L32.2432 199.12Z" fill="#D2D2D2"/>
<path d="M815.474 398.092L815.127 394.427C813.566 377.927 769.095 326.945 764.182 339.737L763.627 341.183L715.334 339.875C673.11 338.731 667.728 339.34 667.237 340.007C666.869 340.507 665.436 340.851 662.942 341.039C660.883 341.194 638.029 341.034 612.154 340.684L565.109 340.048L564.301 338.977L563.494 337.906L391.8 335.659L202.53 333.06L201.676 328.539L33.4003 380.006L32.5207 384.767L0.629115 384.573C-0.14655 384.535 -0.205246 15.1455 0.45467 14.1035C0.731188 13.6685 5.2713 13.4128 17.0196 13.1709L33.2033 12.8375L51.1462 18.3507C83.479 28.2849 168.394 54.2796 186.215 59.6991L203.659 65.0036L217.615 64.8637C286.5 64.173 763.079 57.7945 763.664 57.5557C764.066 57.3847 774.599 45.5747 787.072 31.3113C799.545 17.0478 810.875 4.16775 812.25 2.68872L814.75 0H834.055H853.36V398.232L834.047 398.17C821.74 398.131 816.128 398.419 815.492 398.088L815.474 398.092ZM130.134 289.584C151.927 285.733 170.039 282.482 170.383 282.36C170.881 282.184 170.982 262.916 170.881 187.303L170.755 92.4629H163.03H155.305L155.056 186.654L154.806 280.845L153.56 281.42C152.875 281.736 138.072 284.384 120.665 287.304C103.258 290.223 88.623 292.73 88.1434 292.875C87.5443 293.055 87.2712 293.647 87.2712 294.765C87.2712 296.785 87.6283 297.161 89.2408 296.837C89.9394 296.697 108.342 293.431 130.135 289.58L130.134 289.584ZM106.709 185.388C106.709 124.27 106.541 93.2115 106.211 93.2115C105.88 93.2115 105.712 124.372 105.712 185.696C105.712 247.228 105.879 278.079 106.211 277.872C106.54 277.668 106.709 246.3 106.709 185.388ZM150.071 186.384C150.071 130.248 149.903 101.683 149.573 101.683C149.242 101.683 149.074 130.352 149.074 186.693C149.074 243.238 149.241 271.601 149.573 271.394C149.902 271.19 150.071 242.315 150.071 186.384Z" fill="#EAEAEA"/>
<path d="M813.879 397.114C812.775 396.172 769.107 346.52 764.972 341.504L763.605 339.846V199.195C763.605 66.7417 763.655 58.4693 764.466 57.3104C765.582 55.7142 811.609 3.17859 813.472 1.37633C815.066 -0.167031 816.185 -0.373095 816.633 0.794071C817.029 1.82492 817.029 396.421 816.633 397.452C816.218 398.533 815.428 398.437 813.879 397.117L813.879 397.114Z" fill="#C4C4C4"/>
<path d="M36.5654 375.907C36.3827 375.724 36.2332 301.094 36.2332 199.019C36.2332 31.8866 36.3099 19.2442 37.0053 18.9783C37.43 18.8154 67.1292 29.1231 108.851 41.8847C150.574 54.6462 188.635 66.2408 193.43 67.6502C199.311 69.3781 197.652 70.5443 198.24 71.2306C199.066 72.1944 199.112 73.4402 199.112 199.117C199.112 324.808 199.066 322.846 198.24 323.776C197.648 324.442 197.426 326.159 187.449 329.119C179.362 331.518 141.315 343.101 102.897 354.858C64.481 366.616 37.622 376.236 37.3615 376.236C37.1025 376.236 36.7411 376.087 36.5583 375.904L36.5654 375.907Z" fill="#B7B9B4"/>
<path d="M129.385 290.089C151.315 286.225 169.763 282.853 170.381 282.596L171.503 282.127L171.378 187.043L171.252 91.959H163.028H154.804L154.678 186.294L154.552 280.628L153.432 281.118C152.816 281.387 137.785 284.063 120.029 287.064C102.274 290.065 87.5274 292.657 87.2584 292.823C86.5697 293.248 86.6501 296.235 87.3697 296.955C87.6994 297.285 88.3162 297.454 88.7403 297.331C89.1644 297.208 107.454 293.947 129.384 290.083L129.385 290.089Z" fill="white"/>
<path d="M106.96 185.414C106.96 92.7915 106.955 92.4619 105.963 92.4619C104.971 92.4619 104.965 92.8773 104.717 185.563L104.468 278.505L86.6411 281.293L86.6539 282.083L106.961 278.904L106.96 185.414Z" fill="white"/>
<path d="M150.448 186.536C150.571 103.031 150.554 101.181 149.63 101.181C149.11 101.181 148.548 101.536 148.382 101.969C148.216 102.403 148.08 140.884 148.08 187.484V271.728L116.483 276.942L116.548 277.867L150.322 272.419L150.448 186.536Z" fill="white"/>
<path d="M602.131 339.851C586.097 339.622 572.471 339.319 571.854 339.17C570.749 338.91 570.733 338.803 570.733 330.552V322.198L569.237 321.634L567.742 321.069V316.777V312.485L569.237 312.186L570.733 311.887V274.817C570.733 238.885 570.704 237.747 569.797 237.747C568.129 237.747 567.691 236.556 567.845 232.441C567.984 228.735 568.061 228.503 569.362 227.881L570.733 227.226V190.729V154.232L569.217 153.66L567.702 153.088L567.847 148.696C567.986 144.457 568.039 144.282 569.362 143.649L570.733 142.994V134.827C570.733 130.335 570.909 126.55 571.124 126.417C571.81 125.993 595.897 125.64 628.738 125.573C654.94 125.519 660.653 125.626 661.003 126.178C661.237 126.547 661.432 174.634 661.436 233.038C661.442 314.975 661.307 339.361 660.846 339.824C660.163 340.507 649.044 340.512 602.131 339.85L602.131 339.851Z" fill="#C4C4C4"/>
<path d="M654.966 233.762C654.966 233.457 652.64 233.263 648.985 233.263C645.33 233.263 643.004 233.457 643.004 233.762C643.004 234.066 645.33 234.26 648.985 234.26C652.64 234.26 654.966 234.066 654.966 233.762Z" fill="#C4C4C4"/>
<path d="M565.055 337.639L565.194 122.686L662.32 121.826C663.924 121.575 662.372 121.27 662.345 121.28L565.204 122.154L565.2 122.654L565.741 122.687L566.12 229.993L565.765 338.427C565.765 338.535 565.22 338.072 565.054 337.638L565.055 337.639Z" fill="#C4C4C4"/>
<path d="M38.3252 199.104C38.3252 44.848 38.4376 22.4234 38.9896 22.2107C39.3551 22.0705 66.2256 32.0418 106.498 44.3696C146.772 56.6973 184.808 68.5917 191.188 70.1935L195.209 73.6033V198.821V323.507L190.191 327.224C184.445 331.482 145.18 340.903 105.394 353.078C65.6105 365.252 39.189 375.213 38.8806 375.213C38.4688 375.213 38.3218 335.942 38.3218 199.107L38.3252 199.104ZM130.592 290.344C152.91 286.38 171.358 282.95 171.588 282.72C171.817 282.491 171.948 239.365 171.878 186.881L171.753 91.4624L163.644 91.3254C158.616 91.2404 155.16 91.3891 154.548 91.7167C153.569 92.2405 153.561 93.0609 153.561 186.445C153.561 261.746 153.435 280.689 152.933 280.886C152.587 281.018 137.757 283.586 119.975 286.592C102.194 289.598 87.3373 292.314 86.9603 292.627C86.1092 293.333 86.0594 296.646 86.8874 297.474C87.2244 297.811 88.0655 297.967 88.7564 297.82C89.4475 297.673 108.274 294.31 130.592 290.346L130.592 290.344ZM87.7695 281.017V241.768C87.7695 216.676 88.1177 280.362 87.7679 281.016M87.7676 281.016L87.1126 281.14C85.89 281.371 85.3541 282.457 86.9252 282.187C87.7948 282.037 94.1742 281.048 98.6517 280.381H98.6515C103.129 279.714 107.11 278.905 107.499 278.583C108.103 278.082 108.204 264.655 108.204 185.413C108.204 119.473 108.319 99.2336 107.485 93.5238L102.562 92.7069C101.783 92.7069 101.725 96.5352 101.725 147.567C101.725 184.429 101.555 278.234 101.209 278.883L87.7689 281.016M135.351 274.913C147.305 273.14 150.415 272.524 150.927 271.824C151.44 271.122 151.566 254.373 151.566 186.411C151.566 93.0439 151.775 99.0089 148.56 100.806C147.701 101.286 146.57 101.678 146.045 101.678C145.112 101.678 145.088 102.819 144.964 152.89L144.837 272.153L118.145 276.586L118.165 239.387C118.179 263.577 118.54 275.73 118.162 276.436C117.935 276.861 117.431 276.487 117.154 276.772C116.406 277.538 115.993 278.526 117.171 278.28C117.925 278.122 127.137 276.13 135.352 274.912L135.351 274.913Z" fill="#8BBCFF"/>
<path d="M790.061 369.516C776.218 353.73 764.739 340.445 764.553 339.995C764.366 339.545 764.214 276.15 764.214 199.12C764.214 122.091 764.366 58.6872 764.553 58.2247C765.116 56.8244 815.184 0.00457764 815.855 0.00457764C816.352 0.00422144 816.478 40.1595 816.478 199.12C816.478 358.087 816.352 398.236 815.855 398.226C815.512 398.22 803.905 385.3 790.061 369.513V369.516ZM37.3629 25.156C92.0795 29.7166 139.869 46.0697 191.948 61.9621L202.664 65.1738V199.121V333.068L190.204 336.786C183.35 338.83 146.838 347.44 107.002 359.449L34.1082 381.585L37.3629 25.156ZM130.602 290.344C152.921 286.38 171.369 282.95 171.598 282.721C171.827 282.491 171.958 239.365 171.889 186.881L171.763 91.4624L163.655 91.3254C158.627 91.2405 155.171 91.3892 154.559 91.7167C153.58 92.2405 153.572 93.0609 153.572 186.445C153.572 261.746 153.446 280.689 152.943 280.886C152.598 281.018 137.767 283.586 119.986 286.592C102.205 289.598 87.3479 292.314 86.971 292.627C86.1198 293.333 86.07 296.646 86.8981 297.474C87.235 297.811 88.0761 297.967 88.7671 297.82C89.4581 297.673 108.284 294.31 130.603 290.346L130.602 290.344ZM98.6628 280.381C103.141 279.714 107.122 278.905 107.51 278.583C108.114 278.082 108.216 264.654 108.216 185.413C108.216 84.7942 108.391 91.0888 105.602 91.9341C101.752 93.1043 101.054 93.1031 95.4562 91.9176C92.329 91.2552 89.3226 90.7132 88.7756 90.7132C87.7854 90.7132 87.7811 91.1192 87.7827 184.941C87.7827 249.828 87.6212 279.473 87.2607 280.148C86.5096 281.551 87.1202 282.174 88.9404 281.861C89.81 281.711 94.1849 281.043 98.6625 280.377L98.6628 280.381ZM135.363 274.913C147.317 273.141 150.427 272.524 150.939 271.825C151.452 271.123 151.578 254.374 151.578 186.411C151.578 93.0445 151.787 99.0095 148.571 100.806C147.713 101.286 146.549 101.679 145.984 101.679C145.419 101.679 139.037 100.528 131.8 99.1227C124.564 97.7169 118.54 96.6704 118.413 96.7972C118.286 96.924 118.182 136.893 118.181 185.613C118.181 247.704 118.019 274.498 117.644 275.2C116.813 276.754 117.446 277.745 119.055 277.41C119.809 277.252 127.148 276.127 135.363 274.909L135.363 274.913ZM610.619 339.173C589.374 338.851 571.936 338.551 571.867 338.505C571.799 338.46 571.743 334.371 571.743 329.42C571.743 321.144 571.672 320.424 570.87 320.505C568.773 320.719 568.704 320.594 568.855 316.866C568.998 313.336 569.033 313.249 570.372 313.095L571.743 312.937V274.623V236.309L570.372 236.403L569.001 236.497V232.759C569.001 229.052 569.013 229.02 570.372 228.863L571.743 228.705V190.579C571.743 154.566 571.694 152.457 570.87 152.54C568.764 152.755 568.705 152.642 568.856 148.651C569.001 144.8 569.005 144.789 570.372 144.808L571.743 144.828V136.195C571.743 129.724 571.899 127.514 572.366 127.369C572.708 127.263 592.558 127.048 616.476 126.89L659.964 126.604L659.838 233.134L659.713 339.664L654.479 339.709C651.601 339.734 631.864 339.491 610.619 339.169L610.619 339.173ZM655.187 234.45C656.126 234.09 656.234 232.94 655.352 232.688C655.009 232.59 651.869 232.579 648.374 232.663C642.467 232.805 642.019 232.884 642.019 233.784C642.019 234.691 642.412 234.753 648.209 234.753C651.613 234.753 654.753 234.617 655.187 234.45V234.45Z" fill="#B2BCC6"/>
<path d="M790.061 369.516C776.218 353.73 764.739 340.445 764.553 339.995C764.366 339.545 764.198 276.123 764.179 199.062L764.144 58.9477L765.254 57.5098C765.864 56.719 776.691 44.2969 789.312 29.9054C801.933 15.5138 812.929 2.89743 813.746 1.86977C814.563 0.841787 815.512 0.000732422 815.854 0.000732422C816.352 0.000721789 816.477 40.1562 816.477 199.117C816.477 358.083 816.352 398.232 815.854 398.222C815.512 398.216 803.905 385.296 790.061 369.509L790.061 369.516ZM31.9402 199.396C31.6328 97.438 32.1108 13.9118 32.3194 13.7789C32.528 13.65 63.7596 23.0613 101.725 34.6931C139.689 46.3249 177.591 57.8828 185.953 60.3778C194.314 62.8725 201.548 65.1188 202.028 65.3696C202.857 65.8024 202.895 72.568 202.776 199.444L202.65 333.067L190.189 336.785C183.336 338.829 145.205 350.549 105.393 362.638L32.4992 384.773L31.9402 199.396ZM130.586 290.339C152.905 286.375 171.353 282.944 171.582 282.715C171.811 282.486 171.942 239.359 171.873 186.876L171.747 91.4571L163.639 91.3201C158.611 91.2351 155.155 91.3838 154.543 91.7114C153.564 92.2352 153.556 93.0556 153.556 186.439C153.556 261.741 153.43 280.684 152.928 280.88C152.582 281.013 137.751 283.581 119.97 286.587C102.189 289.593 87.332 292.308 86.955 292.622C86.1039 293.328 86.0541 296.641 86.8821 297.469C87.2191 297.806 88.0602 297.962 88.7511 297.815C89.4422 297.668 108.268 294.305 130.587 290.341L130.586 290.339ZM107.493 278.578C108.097 278.077 108.199 264.649 108.199 185.408C108.199 82.3171 108.512 90.9509 104.819 92.1684C103.197 92.7032 102.035 92.586 95.5165 91.2302C91.4193 90.378 87.772 89.7941 87.4111 89.9326C86.7454 90.188 87.5213 241.376 87.5213 241.376L87.3044 281.782L107.493 278.578ZM150.922 271.82C151.436 271.117 151.561 254.369 151.561 186.406C151.561 92.7309 151.792 99.0468 148.434 100.838C146.854 101.683 146.541 101.693 144.038 100.991C138.525 99.4425 118.04 95.6204 117.603 96.0584C117.182 96.4792 117.32 157.676 117.926 239.235L117.785 277.357L150.922 271.82ZM610.601 339.173C589.356 338.852 571.918 338.551 571.849 338.506C571.781 338.46 571.724 334.372 571.724 329.42C571.724 321.145 571.654 320.425 570.852 320.506C568.755 320.719 568.686 320.594 568.837 316.866C568.98 313.336 569.015 313.249 570.354 313.095L571.724 312.938V274.624V236.31L570.354 236.404L568.983 236.498V232.759C568.983 229.052 568.995 229.02 570.354 228.864L571.724 228.706V190.579C571.724 154.566 571.676 152.457 570.852 152.541C568.746 152.755 568.687 152.642 568.838 148.652C568.983 144.8 568.987 144.789 570.354 144.809L571.724 144.829V136.196C571.724 129.725 571.88 127.515 572.347 127.37C572.69 127.264 592.54 127.048 616.458 126.891L659.946 126.604L659.82 233.135L659.695 339.665L654.461 339.71C651.583 339.734 631.846 339.491 610.601 339.17L610.601 339.173ZM655.168 234.451C656.108 234.09 656.216 232.94 655.334 232.688C654.991 232.59 651.851 232.579 648.356 232.663C642.449 232.806 642.001 232.885 642.001 233.785C642.001 234.692 642.394 234.753 648.191 234.753C651.595 234.753 654.735 234.617 655.169 234.451L655.168 234.451Z" fill="#B3B3B3"/>
<path d="M789.902 368.597L765.106 340.335V199.072V57.8095L770.484 51.7105C794.142 24.8806 814.961 0.959938 814.921 0.652117C814.894 0.447956 815.057 0.219233 815.284 0.143846C815.51 0.0684649 815.695 89.6085 815.695 199.121C815.695 308.634 815.916 398.205 815.71 398.205L789.902 368.597ZM32.4186 199.12C32.4186 97.2838 32.5503 13.9596 32.7112 13.9596C32.8722 13.9596 66.6832 24.2639 107.848 36.8575C149.012 49.4515 187.063 61.0663 192.411 62.6692L202.13 65.583V199.121V332.659L192.411 335.574C187.065 337.177 149.019 348.792 107.864 361.385C66.7076 373.978 32.8973 384.282 32.7272 384.282C32.559 384.282 32.4213 300.958 32.4213 199.122L32.4186 199.12ZM118.986 299.053C137.576 295.489 156.15 291.898 160.263 291.071C164.374 290.245 168.328 289.572 169.048 289.576C170.806 289.584 171.308 288.841 171.737 285.595C172.156 282.423 172.634 93.518 172.227 91.838C171.96 90.7319 171.845 90.7165 163.816 90.7165C159.339 90.7165 155.014 90.9474 154.205 91.2295C152.973 91.6588 147.533 90.5988 120.861 84.7334C103.331 80.8783 88.4848 77.5121 87.8675 77.2532C86.8809 76.8388 86.7461 76.4216 86.7461 73.7811C86.7461 70.9138 86.8016 70.7799 87.9895 70.7799C88.6733 70.7799 107.603 75.0413 130.056 80.2495C152.509 85.4579 171.014 89.7191 171.178 89.7191C171.342 89.7191 171.477 88.6128 171.477 87.2606C171.477 85.3542 171.281 84.7417 170.605 84.5327C168.993 84.0349 84.1064 63.3032 83.6811 63.3032C83.4491 63.3032 83.2593 117.807 83.2593 184.416C83.2593 303.829 83.2728 305.53 84.2233 305.53C84.7536 305.53 100.397 302.614 118.988 299.051L118.986 299.053ZM130.656 97.9006C123.419 96.4241 117.378 95.0969 117.232 94.9511C117.086 94.8053 117.188 94.4654 117.457 94.1958C117.779 93.8744 122.66 94.6469 131.629 96.4383C148.898 99.8878 147.92 99.648 147.028 100.212C145.893 100.93 144.631 100.752 130.656 97.9006H130.656ZM96.4655 91.1748C93.9984 90.6492 90.8025 89.9785 89.3633 89.6844C87.6769 89.3396 86.7466 88.8963 86.7466 88.4372C86.7466 88.0454 87.1391 87.7247 87.6188 87.7246C89.6137 87.7235 104.206 90.8993 103.841 91.2548C102.964 92.1086 100.736 92.0845 96.4659 91.1748L96.4655 91.1748ZM642.993 235.803C642.993 235.386 655.916 234.742 656.436 235.132C656.565 235.229 656.341 235.517 655.937 235.772C654.995 236.368 642.993 236.397 642.993 235.803L642.993 235.803Z" fill="#A7A7A7"/>
<path d="M356.75 155.4H220V163.65H356.75V155.4Z" fill="#80B34C" stroke="black" stroke-width="1.9766" stroke-miterlimit="10"/>
<path d="M349 145.5V155.75H301.7C298.85 155.75 296.55 153.45 296.55 150.6V148.7V148.65C296.95 146.2 299.15 144.45 301.7 144.45H349V154.7" fill="#231F20"/>
<path d="M349 154.75H302.25C299.6 154.75 297.5 152.6 297.5 150C297.5 147.35 299.65 145.25 302.25 145.25H349V154.75Z" fill="white" stroke="black" stroke-miterlimit="10"/>
<path d="M337.55 137V144.5H299.1C296.8 144.5 294.95 142.8 294.95 140.75V139.4V139.35C295.3 137.55 297.05 136.25 299.1 136.25H337.55V143.75" fill="#00AF72"/>
<path d="M337.55 143.75H299.55C297.4 143.75 295.7 142.25 295.7 140.45C295.7 138.65 297.45 137.15 299.55 137.15H337.55V143.75Z" fill="white" stroke="black" stroke-width="0.7504" stroke-miterlimit="10"/>
<path d="M350.4 126.45V136.05H299.35C297.05 136.05 295.2 133.9 295.2 131.25V129.5V129.45C295.55 127.2 297.3 125.5 299.35 125.5H350.4V135.1" fill="#F04938"/>
<path d="M350.4 135.1H299.8C297.65 135.1 295.95 133.2 295.95 130.9C295.95 128.55 297.7 126.7 299.8 126.7H350.4V135.1Z" fill="white" stroke="black" stroke-width="0.8484" stroke-miterlimit="10"/>
<path d="M257.65 129.5C257.65 129.5 257.65 117.1 242.95 117.1C242.95 129.2 254.35 130.15 257.65 129.5Z" fill="#00A449"/>
<path d="M256.7 125.45C256.7 125.45 267.2 128.95 271.3 116.5C261.1 113.05 257.05 122.5 256.7 125.45Z" fill="#00A449"/>
<path d="M257.35 117C257.35 117 257.35 107.95 246.65 107.95C246.6 116.8 254.95 117.5 257.35 117Z" fill="#00A449"/>
<path d="M256.8 105.7C256.8 105.7 261.25 98.25 252.4 93C248.05 100.3 254.6 104.95 256.8 105.7Z" fill="#00A449"/>
<path d="M256.75 105.45C256.75 105.45 261.6 105.8 262.05 100.05C257.25 99.65 256.55 104.15 256.75 105.45Z" fill="#00A449"/>
<path d="M257.1 114.8C257.1 114.8 265.95 114.8 265.95 104.3C257.3 104.3 256.65 112.45 257.1 114.8Z" fill="#00A449"/>
<path d="M256.4 128.95C256.4 129.5 256.75 129.9 257.15 129.9C257.6 129.9 257.9 129.45 257.9 128.95V105.25C257.9 104.7 257.55 104.3 257.15 104.3C256.75 104.3 256.4 104.75 256.4 105.25V128.95Z" fill="#00A449"/>
<path d="M248.1 155.4H266.25L273.45 128.65H240.85L248.1 155.4Z" fill="#FFF692" stroke="black" stroke-width="2" stroke-miterlimit="10"/>
<path d="M274.95 128.15H239.8V136.65H274.95V128.15Z" fill="#FFF692" stroke="black" stroke-width="2" stroke-miterlimit="10"/>
<path d="M741.251 393.262L170.092 386.412L196.713 355.729L711.637 361.905L741.251 393.262Z" fill="#7CC7E7" stroke="black" stroke-width="1.953" stroke-miterlimit="10"/>
<path d="M211.321 363.978L238.912 364.309" stroke="#318CAA" stroke-width="1.953" stroke-miterlimit="10"/>
<path d="M229.519 368.572L250.643 368.826" stroke="#318CAA" stroke-width="1.953" stroke-miterlimit="10"/>
<path d="M263.963 364.609L290.787 364.931" stroke="#318CAA" stroke-width="1.953" stroke-miterlimit="10"/>
<path d="M287.717 369.27L309.56 369.532" stroke="#318CAA" stroke-width="1.953" stroke-miterlimit="10"/>
<path d="M320.773 365.291L343.765 365.566" stroke="#318CAA" stroke-width="1.953" stroke-miterlimit="10"/>
<path d="M338.77 370.591L364.109 370.895" stroke="#318CAA" stroke-width="1.953" stroke-miterlimit="10"/>
<path d="M379.211 365.992L400.718 366.25" stroke="#318CAA" stroke-width="1.953" stroke-miterlimit="10"/>
<path d="M387.36 373.516L408.867 373.774" stroke="#318CAA" stroke-width="1.953" stroke-miterlimit="10"/>
<path d="M428.26 366.58L455.946 366.912" stroke="#318CAA" stroke-width="1.953" stroke-miterlimit="10"/>
<path d="M444.341 371.858L471.549 372.184" stroke="#318CAA" stroke-width="1.953" stroke-miterlimit="10"/>
<path d="M487.095 366.145L509.895 366.419" stroke="#318CAA" stroke-width="1.953" stroke-miterlimit="10"/>
<path d="M500.193 372.528L526.682 372.845" stroke="#318CAA" stroke-width="1.953" stroke-miterlimit="10"/>
<path d="M546.429 367.997L568.942 368.267" stroke="#318CAA" stroke-width="1.953" stroke-miterlimit="10"/>
<path d="M554.895 373.184L577.839 373.459" stroke="#318CAA" stroke-width="1.953" stroke-miterlimit="10"/>
<path d="M595.828 367.45L615.179 367.682" stroke="#318CAA" stroke-width="1.953" stroke-miterlimit="10"/>
<path d="M610.075 373.845L633.546 374.127" stroke="#318CAA" stroke-width="1.953" stroke-miterlimit="10"/>
<path d="M651.871 368.122L676.875 368.422" stroke="#318CAA" stroke-width="1.953" stroke-miterlimit="10"/>
<path d="M666.645 374.524L693.373 374.845" stroke="#318CAA" stroke-width="1.953" stroke-miterlimit="10"/>
<path d="M700.346 368.703L718.26 368.918" stroke="#318CAA" stroke-width="1.953" stroke-miterlimit="10"/>
<path d="M713.875 375.09L722.305 375.192" stroke="#318CAA" stroke-width="1.953" stroke-miterlimit="10"/>
<path d="M196.571 375.612L224.161 375.949" stroke="#318CAA" stroke-width="1.953" stroke-miterlimit="10"/>
<path d="M214.767 380.241L235.891 380.499" stroke="#318CAA" stroke-width="1.953" stroke-miterlimit="10"/>
<path d="M249.213 376.254L276.037 376.581" stroke="#318CAA" stroke-width="1.953" stroke-miterlimit="10"/>
<path d="M272.965 380.951L294.808 381.217" stroke="#318CAA" stroke-width="1.953" stroke-miterlimit="10"/>
<path d="M306.022 376.947L329.014 377.228" stroke="#318CAA" stroke-width="1.953" stroke-miterlimit="10"/>
<path d="M324.018 382.252L349.357 382.561" stroke="#318CAA" stroke-width="1.953" stroke-miterlimit="10"/>
<path d="M364.46 377.66L385.967 377.922" stroke="#318CAA" stroke-width="1.953" stroke-miterlimit="10"/>
<path d="M372.608 385.217L394.067 385.479" stroke="#318CAA" stroke-width="1.953" stroke-miterlimit="10"/>
<path d="M413.509 378.258L441.195 378.596" stroke="#318CAA" stroke-width="1.953" stroke-miterlimit="10"/>
<path d="M429.542 383.539L456.749 383.87" stroke="#318CAA" stroke-width="1.953" stroke-miterlimit="10"/>
<path d="M472.296 377.866L495.144 378.144" stroke="#318CAA" stroke-width="1.953" stroke-miterlimit="10"/>
<path d="M485.393 384.22L511.881 384.543" stroke="#318CAA" stroke-width="1.953" stroke-miterlimit="10"/>
<path d="M531.63 379.699L554.191 379.974" stroke="#318CAA" stroke-width="1.953" stroke-miterlimit="10"/>
<path d="M540.094 384.887L563.086 385.167" stroke="#318CAA" stroke-width="1.953" stroke-miterlimit="10"/>
<path d="M581.076 379.192L600.38 379.428" stroke="#318CAA" stroke-width="1.953" stroke-miterlimit="10"/>
<path d="M595.323 385.56L618.746 385.846" stroke="#318CAA" stroke-width="1.953" stroke-miterlimit="10"/>
<path d="M637.071 379.875L662.123 380.181" stroke="#318CAA" stroke-width="1.953" stroke-miterlimit="10"/>
<path d="M651.892 386.25L678.621 386.576" stroke="#318CAA" stroke-width="1.953" stroke-miterlimit="10"/>
<path d="M685.594 380.467L703.46 380.685" stroke="#318CAA" stroke-width="1.953" stroke-miterlimit="10"/>
<path d="M699.122 386.826L724.892 387.141" stroke="#318CAA" stroke-width="1.953" stroke-miterlimit="10"/>
<path d="M108.257 379.518C108.257 379.518 104.285 376.15 97.026 374.272C96.4075 374.11 95.724 373.948 95.0404 373.818C94.0313 373.624 92.9245 373.43 91.8177 373.3C90.3203 373.138 88.6927 373.009 87 373.009C82.7682 373.009 79.0898 373.657 76.0625 374.531C75.151 374.79 74.3047 375.081 73.4909 375.373C73.2305 375.47 72.9701 375.567 72.7096 375.664C71.2122 376.279 69.9101 376.895 68.901 377.478C68.7383 377.575 68.5755 377.672 68.4127 377.769C66.6875 378.773 65.776 379.55 65.776 379.55L108.257 379.518Z" fill="#231F20"/>
<path d="M88.595 262.458H85.405V373.98H88.595V262.458Z" fill="#231F20"/>
<path d="M112 262.458H62L69.2265 227H104.773L112 262.458Z" fill="#7CC7E7" stroke="black" stroke-width="2.6491" stroke-miterlimit="10"/>
<path d="M105.457 230.562H68.6081L66.72 239.596H107.312L105.457 230.562Z" fill="white" stroke="black" stroke-width="2.6491" stroke-miterlimit="10"/>
<path d="M64.5065 250.185L62.6511 259.22H111.316L109.494 250.185H64.5065Z" fill="white" stroke="black" stroke-width="2.6491" stroke-miterlimit="10"/>
<path d="M774.724 119.117L668.244 119.153L668.276 343.931V347.787V353.05L774.756 353.014V347.751L774.724 119.117Z" fill="#EB5A54" stroke="black" stroke-width="1.9168" stroke-miterlimit="10"/>
<path d="M780 118H663V121.677H780V118Z" fill="#CC4E49" stroke="black" stroke-width="1.9168" stroke-miterlimit="10"/>
<path d="M768.637 297.649H674.363V318.194H768.637V297.649Z" fill="#CC4E49" stroke="black" stroke-width="1.9168" stroke-miterlimit="10"/>
<path d="M768.637 323.349H674.363V343.895H768.637V323.349Z" fill="#CC4E49" stroke="black" stroke-width="1.9168" stroke-miterlimit="10"/>
<path d="M724.747 307.453C725.027 309.904 723.061 311.959 720.72 311.634C719.128 311.418 717.848 310.084 717.629 308.426C717.348 305.975 719.315 303.921 721.656 304.245C723.248 304.461 724.559 305.795 724.747 307.453Z" fill="#231F20"/>
<path d="M768.842 293.303L768.804 128.325L722.729 128.339L722.767 293.317L768.842 293.303Z" fill="#CC4E49" stroke="black" stroke-width="1.9168" stroke-miterlimit="10"/>
<path d="M731.521 219.899C731.802 222.351 729.929 224.405 727.712 224.081C726.183 223.864 724.965 222.531 724.778 220.873C724.497 218.422 726.37 216.367 728.586 216.691C730.116 216.872 731.333 218.241 731.521 219.899Z" fill="#231F20"/>
<path d="M718.669 293.318L718.707 128.34L674.38 128.326L674.342 293.304L718.669 293.318Z" fill="#CC4E49" stroke="black" stroke-width="1.9168" stroke-miterlimit="10"/>
<path d="M709.638 219.899C709.357 222.351 711.23 224.405 713.446 224.081C714.976 223.864 716.193 222.531 716.38 220.873C716.661 218.422 714.788 216.367 712.572 216.691C711.074 216.872 709.825 218.241 709.638 219.899Z" fill="#231F20"/>
<path d="M724.965 332.36C725.246 334.811 723.279 336.866 720.938 336.541C719.346 336.325 718.066 334.991 717.848 333.333C717.567 330.882 719.533 328.828 721.875 329.152C723.498 329.368 724.778 330.702 724.965 332.36Z" fill="#231F20"/>
<path d="M511.975 197.525C511.975 198.3 511.375 198.95 510.625 198.95H389.65C388.9 198.95 388.3 198.325 388.3 197.525V131.725C388.3 130.95 388.9 130.3 389.65 130.3H510.625C511.375 130.3 511.975 130.925 511.975 131.725V197.525Z" fill="#EB5A54"/>
<path d="M510.625 199.25H389.65C388.725 199.25 388 198.475 388 197.525V131.725C388 130.775 388.75 130 389.65 130H510.625C511.55 130 512.275 130.775 512.275 131.725V197.525C512.275 198.475 511.55 199.25 510.625 199.25ZM389.65 130.625C389.075 130.625 388.6 131.125 388.6 131.725V197.525C388.6 198.125 389.075 198.625 389.65 198.625H510.625C511.2 198.625 511.675 198.125 511.675 197.525V131.725C511.675 131.125 511.2 130.625 510.625 130.625H389.65V130.625Z" fill="black"/>
<path d="M508.9 194.425C508.9 195.125 508.325 195.7 507.625 195.7H392.625C391.925 195.7 391.35 195.125 391.35 194.425V134.825C391.35 134.125 391.925 133.55 392.625 133.55H507.625C508.325 133.55 508.9 134.125 508.9 134.825V194.425Z" fill="#7CC7E7" stroke="black" stroke-width="2" stroke-miterlimit="10"/>
<path d="M507.625 196.1H392.625C391.7 196.1 390.95 195.35 390.95 194.425V134.825C390.95 133.9 391.7 133.15 392.625 133.15H507.625C508.55 133.15 509.3 133.9 509.3 134.825V194.425C509.3 195.35 508.55 196.1 507.625 196.1ZM392.625 133.95C392.125 133.95 391.75 134.35 391.75 134.825V194.425C391.75 194.925 392.15 195.3 392.625 195.3H507.625C508.125 195.3 508.5 194.9 508.5 194.425V134.825C508.5 134.325 508.1 133.95 507.625 133.95H392.625Z" fill="black"/>
<path d="M507.05 195.7H393.2C392.4 195.7 391.75 195.075 391.75 194.275V188.675C391.75 188.675 416.325 179.05 449 179.05C481.675 179.05 508.5 188.675 508.5 188.675V194.275C508.525 195.075 507.875 195.7 507.05 195.7Z" fill="#80B34C" stroke="black" stroke-width="1.9766" stroke-miterlimit="10"/>
<path d="M449 179.725C416.3 179.725 391.75 188.75 391.75 188.75V193.9C391.75 194.7 392.425 195.35 393.25 195.35H400.8C410.8 192.7 428.275 189.05 449 189.05C469.725 189.05 488.1 192.675 498.75 195.35H507C507.825 195.35 508.5 194.7 508.5 193.9V188.75C508.525 188.775 481.7 179.725 449 179.725Z" fill="#8EC555"/>
<path d="M465.725 160.65H434.275V181.35H465.725V160.65Z" fill="#FCBB5C" stroke="black" stroke-miterlimit="10" stroke-linecap="round" stroke-linejoin="round"/>
<path d="M462.975 166.975H449.15V174.55H462.975V166.975Z" fill="#38596B" stroke="black" stroke-miterlimit="10" stroke-linecap="round" stroke-linejoin="round"/>
<path d="M462.078 173.847V167.672H450.078V173.847H462.078Z" fill="#9FDBEC" stroke="black" stroke-miterlimit="10" stroke-linecap="round" stroke-linejoin="round"/>
<path d="M463.525 174.55H448.625V175.325H463.525V174.55Z" fill="white" stroke="black" stroke-miterlimit="10" stroke-linecap="round" stroke-linejoin="round"/>
<path d="M445.138 180.425V167.3H437.213V180.425H445.138Z" fill="#38596B" stroke="black" stroke-miterlimit="10" stroke-linecap="round" stroke-linejoin="round"/>
<path d="M444.6 175.1H443.625C443.55 175.1 443.5 175.05 443.5 174.975V174.825C443.5 174.75 443.55 174.7 443.625 174.7H444.6C444.675 174.7 444.725 174.75 444.725 174.825V174.975C444.725 175.05 444.65 175.1 444.6 175.1Z" fill="white" stroke="black" stroke-miterlimit="10" stroke-linecap="round" stroke-linejoin="round"/>
<path d="M466.675 180.425H432.975V181.675H466.675V180.425Z" fill="#B64C3E" stroke="black" stroke-miterlimit="10" stroke-linecap="round" stroke-linejoin="round"/>
<path d="M468.625 161.4H431.05V163.425H468.625V161.4Z" fill="#B64C3E" stroke="black" stroke-miterlimit="10" stroke-linecap="round" stroke-linejoin="round"/>
<path d="M468.625 161.4H431.05L439.525 153.7H460.125L468.625 161.4Z" fill="#B64C3E" stroke="black" stroke-miterlimit="10" stroke-linecap="round" stroke-linejoin="round"/>
<path d="M477.325 170.15H476.25V181.65H477.325V170.15Z" fill="#B86642" stroke="black" stroke-miterlimit="10" stroke-linecap="round" stroke-linejoin="round"/>
<path d="M481.525 169.25C481.85 168.925 482.075 168.525 482.175 168.05C482.475 166.725 481.625 165.425 480.3 165.15C479.9 165.05 479.5 165.075 479.125 165.175C478.675 164.25 477.825 163.525 476.725 163.275C474.85 162.85 472.975 164.05 472.575 165.95C472.55 166.05 472.55 166.15 472.525 166.225C471.625 166.425 470.9 167.125 470.675 168.075C470.475 169.025 470.85 169.975 471.575 170.525C471.55 170.6 471.525 170.675 471.5 170.75C471.275 171.775 471.925 172.775 472.95 173C473.6 173.15 474.25 172.925 474.7 172.475C475.075 172.8 475.525 173.05 476.025 173.15C477.2 173.4 478.375 172.925 479.05 172C479.225 172.125 479.425 172.2 479.65 172.25C480.675 172.475 481.675 171.825 481.9 170.8C482.05 170.275 481.9 169.7 481.525 169.25Z" fill="#80B34C" stroke="black" stroke-width="1.9766" stroke-miterlimit="10"/>
<path d="M431.25 178.725C431.275 178.625 431.275 178.525 431.275 178.425C431.275 177.25 430.325 176.275 429.125 176.275C428.65 176.275 428.2 176.425 427.85 176.7C427.3 176.05 426.45 175.625 425.525 175.625C423.9 175.625 422.575 176.875 422.475 178.475C421.675 178.65 421.075 179.375 421.075 180.25C421.075 181.25 421.875 182.05 422.875 182.05C423.125 182.05 423.375 182 423.575 181.9C423.8 182.275 424.225 182.5 424.675 182.5C425.075 182.5 425.425 182.325 425.675 182.025C426.125 182.6 426.8 182.975 427.6 182.975C428.1 182.975 428.575 182.825 428.975 182.55C429.175 182.65 429.4 182.7 429.625 182.7C430.275 182.7 430.825 182.3 431.05 181.75C431.075 181.75 431.125 181.75 431.15 181.75C432 181.75 432.675 181.075 432.675 180.225C432.7 179.45 432.05 178.775 431.25 178.725Z" fill="#8BBE5C"/>
<path d="M431.25 178.475C431.275 178.375 431.275 178.275 431.275 178.175C431.275 177 430.325 176.025 429.125 176.025C428.65 176.025 428.2 176.175 427.85 176.45C427.3 175.8 426.45 175.375 425.525 175.375C423.9 175.375 422.575 176.625 422.475 178.225C421.675 178.4 421.075 179.125 421.075 180C421.075 181 421.875 181.8 422.875 181.8C423.125 181.8 423.375 181.75 423.575 181.65C423.8 182.025 424.225 182.25 424.675 182.25C425.075 182.25 425.425 182.075 425.675 181.775C426.125 182.35 426.8 182.725 427.6 182.725C428.1 182.725 428.575 182.575 428.975 182.3C429.175 182.4 429.4 182.45 429.625 182.45C430.275 182.45 430.825 182.05 431.05 181.5C431.075 181.5 431.125 181.5 431.15 181.5C432 181.5 432.675 180.825 432.675 179.975C432.7 179.175 432.05 178.525 431.25 178.475Z" fill="#80B34C" stroke="black" stroke-width="1.9766" stroke-miterlimit="10"/>
<path d="M421.075 145.95C421.075 145.9 421.075 145.85 421.075 145.775C421.075 144.575 420.1 143.6 418.9 143.6C418.625 143.6 418.375 143.65 418.15 143.75C417.575 143.1 416.75 142.7 415.825 142.7C415.2 142.7 414.6 142.9 414.1 143.225C413.375 142.125 412.15 141.425 410.75 141.425C408.975 141.425 407.45 142.575 406.925 144.175C406.55 143.825 406.025 143.625 405.475 143.625C404.275 143.625 403.3 144.6 403.3 145.8C403.3 145.85 403.3 145.9 403.3 145.975H421.075V145.95Z" fill="white" stroke="black" stroke-width="1.9766" stroke-miterlimit="10"/>
<path d="M504.075 167.675C504.075 167.625 504.075 167.6 504.075 167.55C504.075 166.625 503.325 165.875 502.4 165.875C502.2 165.875 502 165.925 501.825 165.975C501.4 165.475 500.75 165.15 500.025 165.15C499.525 165.15 499.075 165.3 498.7 165.55C498.15 164.7 497.2 164.15 496.1 164.15C494.725 164.15 493.55 165.05 493.15 166.275C492.85 166 492.45 165.85 492.025 165.85C491.1 165.85 490.35 166.6 490.35 167.525C490.35 167.575 490.35 167.6 490.35 167.65H504.075V167.675Z" fill="white" stroke="black" stroke-width="1.9766" stroke-miterlimit="10"/>
<path d="M496.05 145.625C496 145.625 495.95 145.625 495.9 145.625C495.375 143.625 493.575 142.15 491.425 142.15C489.6 142.15 488 143.225 487.25 144.75C486.4 144.025 485.275 143.575 484.05 143.575C482.925 143.575 481.9 143.95 481.075 144.575C480.3 143.125 478.75 142.15 477 142.15C474.675 142.15 472.75 143.875 472.425 146.1C472.4 146.1 472.4 146.1 472.375 146.1C471.05 146.1 469.95 147.175 469.95 148.525H498.95C498.95 146.9 497.65 145.625 496.05 145.625Z" fill="white" stroke="black" stroke-width="1.9766" stroke-miterlimit="10"/>
<path d="M406.4 158.55C406.375 158.55 406.375 158.55 406.35 158.55C406.15 157.8 405.5 157.25 404.675 157.25C404 157.25 403.4 157.65 403.125 158.225C402.8 157.95 402.4 157.8 401.95 157.8C401.525 157.8 401.15 157.95 400.85 158.175C400.55 157.65 400 157.275 399.35 157.275C398.5 157.275 397.775 157.9 397.65 158.75C397.65 158.75 397.65 158.75 397.625 158.75C397.125 158.75 396.725 159.15 396.725 159.65H407.475C407.475 159.025 407 158.55 406.4 158.55Z" fill="white" stroke="black" stroke-width="1.9766" stroke-miterlimit="10"/>
<path d="M535.559 343.139L337.336 342.391C334.686 342.381 332.569 340.223 332.579 337.598L540.352 338.382C540.343 341.007 538.209 343.149 535.559 343.139Z" fill="#7CC7E7" stroke="black" stroke-width="2" stroke-miterlimit="10"/>
<path d="M535.641 347.964L336.518 347.213L336.497 352.613L535.621 353.364L535.641 347.964Z" fill="#866643"/>
<path d="M535.634 343.139L533.708 350.182L530.383 350.17L528.235 343.111L535.634 343.139Z" fill="#00192E"/>
<path d="M343.961 342.416L342.009 349.458L338.684 349.446L336.536 342.388L343.961 342.416Z" fill="#00192E"/>
<path d="M342.449 292.685L355.159 296.458L434.784 296.758L434.836 282.883L436.911 282.891L436.859 296.766L518.357 297.524L532.798 293.153L524.72 333.598L348.222 332.932L342.449 292.685Z" fill="#296D46"/>
<path d="M518.318 307.799L518.407 284.274C518.443 274.624 511.422 266.797 502.723 266.765L371.023 266.267C362.324 266.234 355.244 274.033 355.208 283.658L355.119 307.183L518.318 307.799Z" fill="#4FA86F" stroke="black" stroke-width="2.1061" stroke-miterlimit="10"/>
<path d="M513.23 297.979L512.69 295.152L509.768 294.591L512.694 294.077L513.255 291.229L513.794 294.081L516.692 294.617L513.79 295.156L513.23 297.979Z" fill="#296D46"/>
<path d="M513.237 296.154C514.106 296.158 514.814 295.466 514.817 294.61C514.821 293.754 514.118 293.058 513.248 293.054C512.379 293.051 511.671 293.742 511.668 294.598C511.664 295.455 512.367 296.151 513.237 296.154Z" fill="#296D46"/>
<path d="M475.712 276.113L475.173 273.286L472.275 272.725L475.177 272.211L475.738 269.363L476.277 272.215L479.175 272.751L476.273 273.29L475.712 276.113Z" fill="#296D46"/>
<path d="M475.719 274.288C476.589 274.291 477.297 273.6 477.3 272.744C477.303 271.888 476.6 271.191 475.731 271.188C474.861 271.184 474.153 271.876 474.15 272.732C474.147 273.588 474.849 274.284 475.719 274.288Z" fill="#296D46"/>
<path d="M475.63 297.837L475.091 295.01L472.193 294.449L475.095 293.935L475.656 291.088L476.195 293.94L479.093 294.476L476.191 295.015L475.63 297.837Z" fill="#296D46"/>
<path d="M475.637 296.012C476.507 296.016 477.215 295.324 477.218 294.468C477.221 293.612 476.518 292.916 475.649 292.912C474.779 292.909 474.071 293.6 474.068 294.457C474.065 295.313 474.767 296.009 475.637 296.012Z" fill="#296D46"/>
<path d="M438.112 275.971L437.573 273.144L434.675 272.583L437.577 272.069L438.138 269.221L438.677 272.073L441.575 272.609L438.673 273.148L438.112 275.971Z" fill="#296D46"/>
<path d="M438.119 274.146C438.989 274.149 439.697 273.458 439.7 272.602C439.703 271.746 439.001 271.049 438.131 271.046C437.261 271.042 436.553 271.734 436.55 272.59C436.547 273.446 437.249 274.142 438.119 274.146Z" fill="#296D46"/>
<path d="M438.03 297.696L437.491 294.868L434.593 294.308L437.495 293.793L438.056 290.946L438.595 293.798L441.493 294.334L438.591 294.873L438.03 297.696Z" fill="#296D46"/>
<path d="M438.037 295.871C438.907 295.874 439.615 295.183 439.618 294.326C439.621 293.47 438.919 292.774 438.049 292.771C437.179 292.767 436.471 293.459 436.468 294.315C436.465 295.171 437.167 295.867 438.037 295.871Z" fill="#296D46"/>
<path d="M400.513 275.829L399.973 273.002L397.075 272.441L399.977 271.927L400.538 269.079L401.077 271.931L403.975 272.467L401.073 273.006L400.513 275.829Z" fill="#296D46"/>
<path d="M400.519 274.004C401.389 274.007 402.097 273.316 402.1 272.46C402.104 271.604 401.401 270.907 400.531 270.904C399.661 270.9 398.954 271.592 398.95 272.448C398.947 273.304 399.65 274 400.519 274.004Z" fill="#296D46"/>
<path d="M400.431 297.554L399.891 294.727L396.993 294.166L399.895 293.652L400.456 290.804L400.995 293.656L403.893 294.192L400.991 294.731L400.431 297.554Z" fill="#296D46"/>
<path d="M400.437 295.729C401.307 295.732 402.015 295.041 402.018 294.185C402.022 293.329 401.319 292.632 400.449 292.629C399.579 292.625 398.872 293.317 398.868 294.173C398.865 295.029 399.568 295.725 400.437 295.729Z" fill="#296D46"/>
<path d="M362.831 297.412L362.291 294.585L359.394 294.024L362.296 293.51L362.856 290.662L363.396 293.514L366.294 294.05L363.391 294.589L362.831 297.412Z" fill="#296D46"/>
<path d="M362.838 295.587C363.708 295.59 364.415 294.899 364.419 294.043C364.422 293.187 363.719 292.49 362.849 292.487C361.98 292.483 361.272 293.175 361.269 294.031C361.265 294.887 361.968 295.583 362.838 295.587Z" fill="#296D46"/>
<path d="M349.917 307.688L349.863 321.863L435.163 322.185L435.219 307.335C435.227 305.11 433.434 303.303 431.209 303.295L354.66 303.006C352.06 302.971 349.927 305.088 349.917 307.688Z" fill="#4FA86F" stroke="black" stroke-width="2" stroke-miterlimit="10"/>
<path d="M522.715 308.515L522.662 322.49L436.113 322.163L436.168 307.489C436.177 305.264 437.983 303.47 440.208 303.479L517.983 303.772C520.608 303.782 522.725 305.915 522.715 308.515Z" fill="#4FA86F" stroke="black" stroke-width="2" stroke-miterlimit="10"/>
<path d="M524.843 301.073L524.758 323.598L348.259 322.932L348.344 300.407C348.361 296.032 344.824 292.444 340.424 292.427C336.05 292.41 332.461 295.947 332.445 300.347L332.304 337.597L348.179 337.657L524.678 338.323L540.552 338.383L540.693 301.133C540.71 296.758 537.173 293.17 532.773 293.153C528.423 293.137 524.86 296.673 524.843 301.073Z" fill="#4FA86F" stroke="black" stroke-width="2" stroke-miterlimit="10"/>
</svg>
