<svg width="854" height="399" viewBox="0 0 854 399" fill="none" xmlns="http://www.w3.org/2000/svg">
<path d="M32.2432 199.12V12.8698L815.352 0.00402832V199.12V398.236L32.4559 384.748L32.2432 199.12Z" fill="#D2D2D2"/>
<path d="M815.474 398.092L815.127 394.427C813.566 377.927 769.095 326.945 764.182 339.737L763.627 341.183L715.334 339.875C673.11 338.731 667.728 339.34 667.237 340.007C666.869 340.507 665.436 340.851 662.942 341.039C660.883 341.194 638.029 341.034 612.154 340.684L565.109 340.048L564.301 338.977L563.494 337.906L391.8 335.659L202.53 333.06L201.676 328.539L33.4003 380.006L32.5207 384.767L0.629115 384.573C-0.14655 384.535 -0.205246 15.1455 0.45467 14.1035C0.731188 13.6685 5.2713 13.4128 17.0196 13.1709L33.2033 12.8375L51.1462 18.3507C83.479 28.2849 168.394 54.2796 186.215 59.6991L203.659 65.0036L217.615 64.8637C286.5 64.173 763.079 57.7945 763.664 57.5557C764.066 57.3847 774.599 45.5747 787.072 31.3113C799.545 17.0478 810.875 4.16775 812.25 2.68872L814.75 0H834.055H853.36V398.232L834.047 398.17C821.74 398.131 816.128 398.419 815.492 398.088L815.474 398.092ZM130.134 289.584C151.927 285.733 170.039 282.482 170.383 282.36C170.881 282.184 170.982 262.916 170.881 187.303L170.755 92.4629H163.03H155.305L155.056 186.654L154.806 280.845L153.56 281.42C152.875 281.736 138.072 284.384 120.665 287.304C103.258 290.223 88.623 292.73 88.1434 292.875C87.5443 293.055 87.2712 293.647 87.2712 294.765C87.2712 296.785 87.6283 297.161 89.2408 296.837C89.9394 296.697 108.342 293.431 130.135 289.58L130.134 289.584ZM106.709 185.388C106.709 124.27 106.541 93.2115 106.211 93.2115C105.88 93.2115 105.712 124.372 105.712 185.696C105.712 247.228 105.879 278.079 106.211 277.872C106.54 277.668 106.709 246.3 106.709 185.388ZM150.071 186.384C150.071 130.248 149.903 101.683 149.573 101.683C149.242 101.683 149.074 130.352 149.074 186.693C149.074 243.238 149.241 271.601 149.573 271.394C149.902 271.19 150.071 242.315 150.071 186.384Z" fill="#EAEAEA"/>
<path d="M813.879 397.114C812.775 396.172 769.107 346.52 764.972 341.504L763.605 339.846V199.195C763.605 66.7417 763.655 58.4693 764.466 57.3103C765.582 55.7141 811.608 3.17856 813.472 1.37629C815.066 -0.167062 816.185 -0.373126 816.633 0.794041C817.029 1.82489 817.029 396.421 816.633 397.452C816.218 398.533 815.428 398.437 813.879 397.116L813.879 397.114Z" fill="#C4C4C4"/>
<path d="M36.5654 375.907C36.3827 375.724 36.2332 301.094 36.2332 199.019C36.2332 31.8866 36.3099 19.2442 37.0053 18.9783C37.43 18.8154 67.1292 29.1231 108.851 41.8847C150.574 54.6462 188.635 66.2408 193.43 67.6502C199.311 69.3781 197.652 70.5443 198.24 71.2306C199.066 72.1944 199.112 73.4402 199.112 199.117C199.112 324.808 199.066 322.846 198.24 323.776C197.648 324.442 197.426 326.159 187.449 329.119C179.362 331.518 141.315 343.101 102.897 354.858C64.481 366.616 37.622 376.236 37.3615 376.236C37.1025 376.236 36.7411 376.087 36.5583 375.904L36.5654 375.907Z" fill="#B7B9B4"/>
<path d="M129.385 290.089C151.315 286.225 169.763 282.853 170.381 282.596L171.503 282.127L171.378 187.043L171.252 91.959H163.028H154.804L154.678 186.294L154.552 280.628L153.432 281.118C152.816 281.387 137.785 284.063 120.029 287.064C102.274 290.065 87.5274 292.657 87.2584 292.823C86.5697 293.248 86.6501 296.235 87.3697 296.955C87.6994 297.285 88.3162 297.454 88.7403 297.331C89.1644 297.208 107.454 293.947 129.384 290.083L129.385 290.089Z" fill="white"/>
<path d="M106.96 185.414C106.96 92.7915 106.955 92.4619 105.963 92.4619C104.971 92.4619 104.965 92.8773 104.717 185.563L104.468 278.505L86.6411 281.293L86.6539 282.083L106.961 278.904L106.96 185.414Z" fill="white"/>
<path d="M150.448 186.536C150.571 103.031 150.554 101.181 149.63 101.181C149.11 101.181 148.548 101.536 148.382 101.969C148.216 102.403 148.08 140.884 148.08 187.484V271.728L116.483 276.942L116.548 277.867L150.322 272.419L150.448 186.536Z" fill="white"/>
<path d="M118 95.5L148 102V272L118 276V95.5Z" fill="#8BBCFF"/>
<path d="M88 89L105 92.5V277.5L88 280V89Z" fill="#8BBCFF"/>
<path d="M356.75 155.4H220V163.65H356.75V155.4Z" fill="#80B34C" stroke="black" stroke-width="1.9766" stroke-miterlimit="10"/>
<path d="M349 145.5V155.75H301.7C298.85 155.75 296.55 153.45 296.55 150.6V148.7V148.65C296.95 146.2 299.15 144.45 301.7 144.45H349V154.7" fill="#231F20"/>
<path d="M349 154.75H302.25C299.6 154.75 297.5 152.6 297.5 150C297.5 147.35 299.65 145.25 302.25 145.25H349V154.75Z" fill="white" stroke="black" stroke-miterlimit="10"/>
<path d="M337.55 137V144.5H299.1C296.8 144.5 294.95 142.8 294.95 140.75V139.4V139.35C295.3 137.55 297.05 136.25 299.1 136.25H337.55V143.75" fill="#00AF72"/>
<path d="M337.55 143.75H299.55C297.4 143.75 295.7 142.25 295.7 140.45C295.7 138.65 297.45 137.15 299.55 137.15H337.55V143.75Z" fill="white" stroke="black" stroke-width="0.7504" stroke-miterlimit="10"/>
<path d="M350.4 126.45V136.05H299.35C297.05 136.05 295.2 133.9 295.2 131.25V129.5V129.45C295.55 127.2 297.3 125.5 299.35 125.5H350.4V135.1" fill="#F04938"/>
<path d="M350.4 135.1H299.8C297.65 135.1 295.95 133.2 295.95 130.9C295.95 128.55 297.7 126.7 299.8 126.7H350.4V135.1Z" fill="white" stroke="black" stroke-width="0.8484" stroke-miterlimit="10"/>
<path d="M257.65 129.5C257.65 129.5 257.65 117.1 242.95 117.1C242.95 129.2 254.35 130.15 257.65 129.5Z" fill="#00A449"/>
<path d="M256.7 125.45C256.7 125.45 267.2 128.95 271.3 116.5C261.1 113.05 257.05 122.5 256.7 125.45Z" fill="#00A449"/>
<path d="M257.35 117C257.35 117 257.35 107.95 246.65 107.95C246.6 116.8 254.95 117.5 257.35 117Z" fill="#00A449"/>
<path d="M256.8 105.7C256.8 105.7 261.25 98.25 252.4 93C248.05 100.3 254.6 104.95 256.8 105.7Z" fill="#00A449"/>
<path d="M256.75 105.45C256.75 105.45 261.6 105.8 262.05 100.05C257.25 99.65 256.55 104.15 256.75 105.45Z" fill="#00A449"/>
<path d="M257.1 114.8C257.1 114.8 265.95 114.8 265.95 104.3C257.3 104.3 256.65 112.45 257.1 114.8Z" fill="#00A449"/>
<path d="M256.4 128.95C256.4 129.5 256.75 129.9 257.15 129.9C257.6 129.9 257.9 129.45 257.9 128.95V105.25C257.9 104.7 257.55 104.3 257.15 104.3C256.75 104.3 256.4 104.75 256.4 105.25V128.95Z" fill="#00A449"/>
<path d="M248.1 155.4H266.25L273.45 128.65H240.85L248.1 155.4Z" fill="#FFF692" stroke="black" stroke-width="2" stroke-miterlimit="10"/>
<path d="M274.95 128.15H239.8V136.65H274.95V128.15Z" fill="#FFF692" stroke="black" stroke-width="2" stroke-miterlimit="10"/>
<path d="M741.251 393.262L170.092 386.411L196.713 355.729L711.637 361.905L741.251 393.262Z" fill="#7CC7E7" stroke="black" stroke-width="1.953" stroke-miterlimit="10"/>
<path d="M211.321 363.978L238.912 364.309" stroke="#318CAA" stroke-width="1.953" stroke-miterlimit="10"/>
<path d="M229.519 368.572L250.643 368.826" stroke="#318CAA" stroke-width="1.953" stroke-miterlimit="10"/>
<path d="M263.963 364.609L290.787 364.931" stroke="#318CAA" stroke-width="1.953" stroke-miterlimit="10"/>
<path d="M287.717 369.27L309.56 369.532" stroke="#318CAA" stroke-width="1.953" stroke-miterlimit="10"/>
<path d="M320.773 365.291L343.765 365.566" stroke="#318CAA" stroke-width="1.953" stroke-miterlimit="10"/>
<path d="M338.77 370.591L364.109 370.895" stroke="#318CAA" stroke-width="1.953" stroke-miterlimit="10"/>
<path d="M379.211 365.992L400.718 366.25" stroke="#318CAA" stroke-width="1.953" stroke-miterlimit="10"/>
<path d="M387.36 373.516L408.867 373.774" stroke="#318CAA" stroke-width="1.953" stroke-miterlimit="10"/>
<path d="M428.26 366.58L455.946 366.912" stroke="#318CAA" stroke-width="1.953" stroke-miterlimit="10"/>
<path d="M444.341 371.858L471.549 372.184" stroke="#318CAA" stroke-width="1.953" stroke-miterlimit="10"/>
<path d="M487.095 366.145L509.895 366.419" stroke="#318CAA" stroke-width="1.953" stroke-miterlimit="10"/>
<path d="M500.193 372.528L526.681 372.845" stroke="#318CAA" stroke-width="1.953" stroke-miterlimit="10"/>
<path d="M546.429 367.997L568.942 368.267" stroke="#318CAA" stroke-width="1.953" stroke-miterlimit="10"/>
<path d="M554.895 373.184L577.839 373.459" stroke="#318CAA" stroke-width="1.953" stroke-miterlimit="10"/>
<path d="M595.828 367.45L615.179 367.682" stroke="#318CAA" stroke-width="1.953" stroke-miterlimit="10"/>
<path d="M610.075 373.845L633.546 374.127" stroke="#318CAA" stroke-width="1.953" stroke-miterlimit="10"/>
<path d="M651.871 368.122L676.875 368.422" stroke="#318CAA" stroke-width="1.953" stroke-miterlimit="10"/>
<path d="M666.645 374.524L693.373 374.845" stroke="#318CAA" stroke-width="1.953" stroke-miterlimit="10"/>
<path d="M700.346 368.703L718.26 368.918" stroke="#318CAA" stroke-width="1.953" stroke-miterlimit="10"/>
<path d="M713.874 375.09L722.305 375.192" stroke="#318CAA" stroke-width="1.953" stroke-miterlimit="10"/>
<path d="M196.571 375.612L224.161 375.949" stroke="#318CAA" stroke-width="1.953" stroke-miterlimit="10"/>
<path d="M214.767 380.241L235.891 380.499" stroke="#318CAA" stroke-width="1.953" stroke-miterlimit="10"/>
<path d="M249.213 376.254L276.037 376.581" stroke="#318CAA" stroke-width="1.953" stroke-miterlimit="10"/>
<path d="M272.965 380.951L294.808 381.217" stroke="#318CAA" stroke-width="1.953" stroke-miterlimit="10"/>
<path d="M306.022 376.947L329.014 377.228" stroke="#318CAA" stroke-width="1.953" stroke-miterlimit="10"/>
<path d="M324.018 382.252L349.357 382.561" stroke="#318CAA" stroke-width="1.953" stroke-miterlimit="10"/>
<path d="M364.46 377.66L385.967 377.922" stroke="#318CAA" stroke-width="1.953" stroke-miterlimit="10"/>
<path d="M372.608 385.217L394.067 385.479" stroke="#318CAA" stroke-width="1.953" stroke-miterlimit="10"/>
<path d="M413.509 378.258L441.195 378.596" stroke="#318CAA" stroke-width="1.953" stroke-miterlimit="10"/>
<path d="M429.541 383.539L456.749 383.87" stroke="#318CAA" stroke-width="1.953" stroke-miterlimit="10"/>
<path d="M472.296 377.866L495.144 378.144" stroke="#318CAA" stroke-width="1.953" stroke-miterlimit="10"/>
<path d="M485.393 384.22L511.881 384.543" stroke="#318CAA" stroke-width="1.953" stroke-miterlimit="10"/>
<path d="M531.63 379.699L554.191 379.974" stroke="#318CAA" stroke-width="1.953" stroke-miterlimit="10"/>
<path d="M540.094 384.887L563.086 385.167" stroke="#318CAA" stroke-width="1.953" stroke-miterlimit="10"/>
<path d="M581.076 379.192L600.38 379.428" stroke="#318CAA" stroke-width="1.953" stroke-miterlimit="10"/>
<path d="M595.323 385.56L618.746 385.846" stroke="#318CAA" stroke-width="1.953" stroke-miterlimit="10"/>
<path d="M637.071 379.875L662.123 380.181" stroke="#318CAA" stroke-width="1.953" stroke-miterlimit="10"/>
<path d="M651.892 386.25L678.621 386.576" stroke="#318CAA" stroke-width="1.953" stroke-miterlimit="10"/>
<path d="M685.594 380.467L703.46 380.685" stroke="#318CAA" stroke-width="1.953" stroke-miterlimit="10"/>
<path d="M699.122 386.826L724.892 387.141" stroke="#318CAA" stroke-width="1.953" stroke-miterlimit="10"/>
<path d="M579.257 344.524C579.257 344.524 575.285 341.863 568.026 340.379C567.408 340.251 566.724 340.123 566.04 340.021C565.031 339.867 563.924 339.714 562.818 339.611C561.32 339.483 559.693 339.381 558 339.381C553.768 339.381 550.09 339.893 547.062 340.584C546.151 340.788 545.305 341.019 544.491 341.249C544.23 341.326 543.97 341.403 543.71 341.479C542.212 341.965 540.91 342.452 539.901 342.912C539.738 342.989 539.576 343.066 539.413 343.143C537.687 343.936 536.776 344.55 536.776 344.55L579.257 344.524Z" fill="#231F20"/>
<path d="M559.595 252.02H556.405V340.149H559.595V252.02Z" fill="#231F20"/>
<path d="M583 252.02H533L540.227 224H575.773L583 252.02Z" fill="#7CC7E7" stroke="black" stroke-width="2.6491" stroke-miterlimit="10"/>
<path d="M576.457 226.815H539.608L537.72 233.954H578.312L576.457 226.815Z" fill="white" stroke="black" stroke-width="2.6491" stroke-miterlimit="10"/>
<path d="M535.506 242.322L533.651 249.461H582.316L580.494 242.322H535.506Z" fill="white" stroke="black" stroke-width="2.6491" stroke-miterlimit="10"/>
<path d="M511.975 197.525C511.975 198.3 511.375 198.95 510.625 198.95H389.65C388.9 198.95 388.3 198.325 388.3 197.525V131.725C388.3 130.95 388.9 130.3 389.65 130.3H510.625C511.375 130.3 511.975 130.925 511.975 131.725V197.525Z" fill="#EB5A54"/>
<path d="M510.625 199.25H389.65C388.725 199.25 388 198.475 388 197.525V131.725C388 130.775 388.75 130 389.65 130H510.625C511.55 130 512.275 130.775 512.275 131.725V197.525C512.275 198.475 511.55 199.25 510.625 199.25ZM389.65 130.625C389.075 130.625 388.6 131.125 388.6 131.725V197.525C388.6 198.125 389.075 198.625 389.65 198.625H510.625C511.2 198.625 511.675 198.125 511.675 197.525V131.725C511.675 131.125 511.2 130.625 510.625 130.625H389.65V130.625Z" fill="black"/>
<path d="M508.9 194.425C508.9 195.125 508.325 195.7 507.625 195.7H392.625C391.925 195.7 391.35 195.125 391.35 194.425V134.825C391.35 134.125 391.925 133.55 392.625 133.55H507.625C508.325 133.55 508.9 134.125 508.9 134.825V194.425Z" fill="#7CC7E7" stroke="black" stroke-width="2" stroke-miterlimit="10"/>
<path d="M507.625 196.1H392.625C391.7 196.1 390.95 195.35 390.95 194.425V134.825C390.95 133.9 391.7 133.15 392.625 133.15H507.625C508.55 133.15 509.3 133.9 509.3 134.825V194.425C509.3 195.35 508.55 196.1 507.625 196.1ZM392.625 133.95C392.125 133.95 391.75 134.35 391.75 134.825V194.425C391.75 194.925 392.15 195.3 392.625 195.3H507.625C508.125 195.3 508.5 194.9 508.5 194.425V134.825C508.5 134.325 508.1 133.95 507.625 133.95H392.625Z" fill="black"/>
<path d="M507.05 195.7H393.2C392.4 195.7 391.75 195.075 391.75 194.275V188.675C391.75 188.675 416.325 179.05 449 179.05C481.675 179.05 508.5 188.675 508.5 188.675V194.275C508.525 195.075 507.875 195.7 507.05 195.7Z" fill="#80B34C" stroke="black" stroke-width="1.9766" stroke-miterlimit="10"/>
<path d="M449 179.725C416.3 179.725 391.75 188.75 391.75 188.75V193.9C391.75 194.7 392.425 195.35 393.25 195.35H400.8C410.8 192.7 428.275 189.05 449 189.05C469.725 189.05 488.1 192.675 498.75 195.35H507C507.825 195.35 508.5 194.7 508.5 193.9V188.75C508.525 188.775 481.7 179.725 449 179.725Z" fill="#8EC555"/>
<path d="M465.725 160.65H434.275V181.35H465.725V160.65Z" fill="#FCBB5C" stroke="black" stroke-miterlimit="10" stroke-linecap="round" stroke-linejoin="round"/>
<path d="M462.975 166.975H449.15V174.55H462.975V166.975Z" fill="#38596B" stroke="black" stroke-miterlimit="10" stroke-linecap="round" stroke-linejoin="round"/>
<path d="M462.078 173.847V167.672H450.078V173.847H462.078Z" fill="#9FDBEC" stroke="black" stroke-miterlimit="10" stroke-linecap="round" stroke-linejoin="round"/>
<path d="M463.525 174.55H448.625V175.325H463.525V174.55Z" fill="white" stroke="black" stroke-miterlimit="10" stroke-linecap="round" stroke-linejoin="round"/>
<path d="M445.138 180.425V167.3H437.213V180.425H445.138Z" fill="#38596B" stroke="black" stroke-miterlimit="10" stroke-linecap="round" stroke-linejoin="round"/>
<path d="M444.6 175.1H443.625C443.55 175.1 443.5 175.05 443.5 174.975V174.825C443.5 174.75 443.55 174.7 443.625 174.7H444.6C444.675 174.7 444.725 174.75 444.725 174.825V174.975C444.725 175.05 444.65 175.1 444.6 175.1Z" fill="white" stroke="black" stroke-miterlimit="10" stroke-linecap="round" stroke-linejoin="round"/>
<path d="M466.675 180.425H432.975V181.675H466.675V180.425Z" fill="#B64C3E" stroke="black" stroke-miterlimit="10" stroke-linecap="round" stroke-linejoin="round"/>
<path d="M468.625 161.4H431.05V163.425H468.625V161.4Z" fill="#B64C3E" stroke="black" stroke-miterlimit="10" stroke-linecap="round" stroke-linejoin="round"/>
<path d="M468.625 161.4H431.05L439.525 153.7H460.125L468.625 161.4Z" fill="#B64C3E" stroke="black" stroke-miterlimit="10" stroke-linecap="round" stroke-linejoin="round"/>
<path d="M477.325 170.15H476.25V181.65H477.325V170.15Z" fill="#B86642" stroke="black" stroke-miterlimit="10" stroke-linecap="round" stroke-linejoin="round"/>
<path d="M481.525 169.25C481.85 168.925 482.075 168.525 482.175 168.05C482.475 166.725 481.625 165.425 480.3 165.15C479.9 165.05 479.5 165.075 479.125 165.175C478.675 164.25 477.825 163.525 476.725 163.275C474.85 162.85 472.975 164.05 472.575 165.95C472.55 166.05 472.55 166.15 472.525 166.225C471.625 166.425 470.9 167.125 470.675 168.075C470.475 169.025 470.85 169.975 471.575 170.525C471.55 170.6 471.525 170.675 471.5 170.75C471.275 171.775 471.925 172.775 472.95 173C473.6 173.15 474.25 172.925 474.7 172.475C475.075 172.8 475.525 173.05 476.025 173.15C477.2 173.4 478.375 172.925 479.05 172C479.225 172.125 479.425 172.2 479.65 172.25C480.675 172.475 481.675 171.825 481.9 170.8C482.05 170.275 481.9 169.7 481.525 169.25Z" fill="#80B34C" stroke="black" stroke-width="1.9766" stroke-miterlimit="10"/>
<path d="M431.25 178.725C431.275 178.625 431.275 178.525 431.275 178.425C431.275 177.25 430.325 176.275 429.125 176.275C428.65 176.275 428.2 176.425 427.85 176.7C427.3 176.05 426.45 175.625 425.525 175.625C423.9 175.625 422.575 176.875 422.475 178.475C421.675 178.65 421.075 179.375 421.075 180.25C421.075 181.25 421.875 182.05 422.875 182.05C423.125 182.05 423.375 182 423.575 181.9C423.8 182.275 424.225 182.5 424.675 182.5C425.075 182.5 425.425 182.325 425.675 182.025C426.125 182.6 426.8 182.975 427.6 182.975C428.1 182.975 428.575 182.825 428.975 182.55C429.175 182.65 429.4 182.7 429.625 182.7C430.275 182.7 430.825 182.3 431.05 181.75C431.075 181.75 431.125 181.75 431.15 181.75C432 181.75 432.675 181.075 432.675 180.225C432.7 179.45 432.05 178.775 431.25 178.725Z" fill="#8BBE5C"/>
<path d="M431.25 178.475C431.275 178.375 431.275 178.275 431.275 178.175C431.275 177 430.325 176.025 429.125 176.025C428.65 176.025 428.2 176.175 427.85 176.45C427.3 175.8 426.45 175.375 425.525 175.375C423.9 175.375 422.575 176.625 422.475 178.225C421.675 178.4 421.075 179.125 421.075 180C421.075 181 421.875 181.8 422.875 181.8C423.125 181.8 423.375 181.75 423.575 181.65C423.8 182.025 424.225 182.25 424.675 182.25C425.075 182.25 425.425 182.075 425.675 181.775C426.125 182.35 426.8 182.725 427.6 182.725C428.1 182.725 428.575 182.575 428.975 182.3C429.175 182.4 429.4 182.45 429.625 182.45C430.275 182.45 430.825 182.05 431.05 181.5C431.075 181.5 431.125 181.5 431.15 181.5C432 181.5 432.675 180.825 432.675 179.975C432.7 179.175 432.05 178.525 431.25 178.475Z" fill="#80B34C" stroke="black" stroke-width="1.9766" stroke-miterlimit="10"/>
<path d="M421.075 145.95C421.075 145.9 421.075 145.85 421.075 145.775C421.075 144.575 420.1 143.6 418.9 143.6C418.625 143.6 418.375 143.65 418.15 143.75C417.575 143.1 416.75 142.7 415.825 142.7C415.2 142.7 414.6 142.9 414.1 143.225C413.375 142.125 412.15 141.425 410.75 141.425C408.975 141.425 407.45 142.575 406.925 144.175C406.55 143.825 406.025 143.625 405.475 143.625C404.275 143.625 403.3 144.6 403.3 145.8C403.3 145.85 403.3 145.9 403.3 145.975H421.075V145.95Z" fill="white" stroke="black" stroke-width="1.9766" stroke-miterlimit="10"/>
<path d="M504.075 167.675C504.075 167.625 504.075 167.6 504.075 167.55C504.075 166.625 503.325 165.875 502.4 165.875C502.2 165.875 502 165.925 501.825 165.975C501.4 165.475 500.75 165.15 500.025 165.15C499.525 165.15 499.075 165.3 498.7 165.55C498.15 164.7 497.2 164.15 496.1 164.15C494.725 164.15 493.55 165.05 493.15 166.275C492.85 166 492.45 165.85 492.025 165.85C491.1 165.85 490.35 166.6 490.35 167.525C490.35 167.575 490.35 167.6 490.35 167.65H504.075V167.675Z" fill="white" stroke="black" stroke-width="1.9766" stroke-miterlimit="10"/>
<path d="M496.05 145.625C496 145.625 495.95 145.625 495.9 145.625C495.375 143.625 493.575 142.15 491.425 142.15C489.6 142.15 488 143.225 487.25 144.75C486.4 144.025 485.275 143.575 484.05 143.575C482.925 143.575 481.9 143.95 481.075 144.575C480.3 143.125 478.75 142.15 477 142.15C474.675 142.15 472.75 143.875 472.425 146.1C472.4 146.1 472.4 146.1 472.375 146.1C471.05 146.1 469.95 147.175 469.95 148.525H498.95C498.95 146.9 497.65 145.625 496.05 145.625Z" fill="white" stroke="black" stroke-width="1.9766" stroke-miterlimit="10"/>
<path d="M406.4 158.55C406.375 158.55 406.375 158.55 406.35 158.55C406.15 157.8 405.5 157.25 404.675 157.25C404 157.25 403.4 157.65 403.125 158.225C402.8 157.95 402.4 157.8 401.95 157.8C401.525 157.8 401.15 157.95 400.85 158.175C400.55 157.65 400 157.275 399.35 157.275C398.5 157.275 397.775 157.9 397.65 158.75C397.65 158.75 397.65 158.75 397.625 158.75C397.125 158.75 396.725 159.15 396.725 159.65H407.475C407.475 159.025 407 158.55 406.4 158.55Z" fill="white" stroke="black" stroke-width="1.9766" stroke-miterlimit="10"/>
<path d="M356.402 343.194L158.198 340.315C155.548 340.277 153.455 338.096 153.493 335.471L361.246 338.488C361.208 341.113 359.052 343.232 356.402 343.194Z" fill="#7CC7E7" stroke="black" stroke-width="2" stroke-miterlimit="10"/>
<path d="M356.432 348.019L157.328 345.128L157.25 350.528L356.354 353.419L356.432 348.019Z" fill="#866643"/>
<path d="M356.477 343.195L354.475 350.216L351.15 350.168L349.078 343.087L356.477 343.195Z" fill="#00192E"/>
<path d="M164.822 340.411L162.795 347.433L159.47 347.384L157.398 340.304L164.822 340.411Z" fill="#00192E"/>
<path d="M163.844 290.667L176.514 294.576L256.131 295.733L256.332 281.859L258.407 281.889L258.205 295.763L339.69 297.396L354.178 293.181L345.666 333.537L169.185 330.974L163.844 290.667Z" fill="#296D46"/>
<path d="M339.541 307.67L339.883 284.147C340.023 274.498 333.087 266.597 324.388 266.471L192.702 264.558C184.002 264.432 176.84 272.154 176.7 281.778L176.358 305.3L339.541 307.67Z" fill="#4FA86F" stroke="black" stroke-width="2.1061" stroke-miterlimit="10"/>
<path d="M334.559 297.797L334.05 294.964L331.133 294.371L334.066 293.889L334.657 291.047L335.165 293.905L338.058 294.472L335.15 294.98L334.559 297.797Z" fill="#296D46"/>
<path d="M334.585 295.972C335.455 295.984 336.17 295.301 336.183 294.445C336.195 293.589 335.5 292.885 334.63 292.872C333.761 292.859 333.046 293.543 333.033 294.399C333.021 295.255 333.716 295.959 334.585 295.972Z" fill="#296D46"/>
<path d="M297.278 275.528L296.769 272.695L293.878 272.103L296.785 271.62L297.376 268.779L297.885 271.636L300.777 272.203L297.869 272.711L297.278 275.528Z" fill="#296D46"/>
<path d="M297.305 273.703C298.175 273.716 298.89 273.032 298.902 272.176C298.915 271.32 298.22 270.616 297.35 270.603C296.48 270.591 295.765 271.274 295.752 272.13C295.74 272.986 296.435 273.69 297.305 273.703Z" fill="#296D46"/>
<path d="M296.963 297.251L296.454 294.418L293.562 293.826L296.47 293.343L297.061 290.501L297.569 293.359L300.462 293.926L297.554 294.434L296.963 297.251Z" fill="#296D46"/>
<path d="M296.989 295.426C297.859 295.438 298.574 294.755 298.587 293.899C298.599 293.043 297.904 292.339 297.034 292.326C296.165 292.314 295.449 292.997 295.437 293.853C295.425 294.709 296.12 295.413 296.989 295.426Z" fill="#296D46"/>
<path d="M259.682 274.982L259.173 272.149L256.282 271.557L259.189 271.074L259.78 268.233L260.289 271.09L263.181 271.657L260.273 272.165L259.682 274.982Z" fill="#296D46"/>
<path d="M259.709 273.157C260.579 273.17 261.294 272.486 261.306 271.63C261.319 270.774 260.624 270.07 259.754 270.057C258.884 270.045 258.169 270.728 258.156 271.584C258.144 272.44 258.839 273.145 259.709 273.157Z" fill="#296D46"/>
<path d="M259.367 296.705L258.858 293.872L255.966 293.28L258.874 292.797L259.465 289.955L259.973 292.813L262.865 293.38L259.958 293.888L259.367 296.705Z" fill="#296D46"/>
<path d="M259.393 294.88C260.263 294.893 260.978 294.209 260.991 293.353C261.003 292.497 260.308 291.793 259.438 291.78C258.569 291.768 257.853 292.451 257.841 293.307C257.829 294.163 258.524 294.867 259.393 294.88Z" fill="#296D46"/>
<path d="M222.086 274.436L221.577 271.603L218.686 271.011L221.593 270.528L222.184 267.687L222.693 270.544L225.585 271.111L222.677 271.619L222.086 274.436Z" fill="#296D46"/>
<path d="M222.113 272.611C222.983 272.624 223.698 271.94 223.71 271.084C223.723 270.228 223.028 269.524 222.158 269.512C221.288 269.499 220.573 270.183 220.56 271.038C220.548 271.894 221.243 272.599 222.113 272.611Z" fill="#296D46"/>
<path d="M221.771 296.159L221.262 293.326L218.37 292.734L221.277 292.251L221.869 289.409L222.377 292.267L225.269 292.834L222.362 293.342L221.771 296.159Z" fill="#296D46"/>
<path d="M221.797 294.334C222.667 294.347 223.382 293.663 223.395 292.807C223.407 291.951 222.712 291.247 221.842 291.234C220.973 291.222 220.257 291.905 220.245 292.761C220.233 293.617 220.928 294.321 221.797 294.334Z" fill="#296D46"/>
<path d="M184.175 295.613L183.666 292.78L180.774 292.188L183.681 291.705L184.273 288.863L184.781 291.721L187.673 292.288L184.766 292.796L184.175 295.613Z" fill="#296D46"/>
<path d="M184.201 293.788C185.071 293.801 185.786 293.117 185.799 292.261C185.811 291.405 185.116 290.701 184.246 290.688C183.376 290.676 182.661 291.359 182.649 292.215C182.636 293.071 183.331 293.775 184.201 293.788Z" fill="#296D46"/>
<path d="M171.151 305.75L170.945 319.923L256.236 321.162L256.452 306.313C256.484 304.089 254.711 302.263 252.486 302.23L175.944 301.119C173.345 301.056 171.189 303.15 171.151 305.75Z" fill="#4FA86F" stroke="black" stroke-width="2" stroke-miterlimit="10"/>
<path d="M343.93 308.434L343.728 322.407L257.187 321.151L257.4 306.477C257.432 304.252 259.258 302.479 261.483 302.511L339.25 303.64C341.874 303.678 343.968 305.834 343.93 308.434Z" fill="#4FA86F" stroke="black" stroke-width="2" stroke-miterlimit="10"/>
<path d="M346.138 301.015L345.811 323.538L169.33 320.975L169.657 298.452C169.721 294.078 166.223 290.452 161.823 290.388C157.449 290.324 153.823 293.822 153.759 298.221L153.218 335.467L169.091 335.698L345.573 338.261L361.446 338.491L361.987 301.245C362.05 296.871 358.553 293.244 354.153 293.181C349.803 293.117 346.202 296.616 346.138 301.015Z" fill="#4FA86F" stroke="black" stroke-width="2" stroke-miterlimit="10"/>
<path d="M531.093 298.42L504.287 280.706C503.811 280.391 503.246 280.215 502.664 280.203L393.936 277.817C393.355 277.805 392.782 277.955 392.292 278.249L364.736 294.77C363.912 295.264 363.405 296.113 363.384 297.033L363.085 310.681C363.052 312.204 364.338 313.468 365.959 313.503L383.48 313.888L382.516 357.827C382.483 359.35 383.77 360.614 385.391 360.65C387.012 360.685 388.353 359.479 388.386 357.956L388.698 343.74L400.858 330.234L400.756 334.867C400.723 336.39 402.01 337.654 403.631 337.69C405.252 337.725 406.593 336.519 406.626 334.996L407.074 314.577C407.076 314.519 407.071 314.463 407.069 314.405L415.34 314.587L415.214 320.344C415.18 321.867 416.468 323.131 418.088 323.166L476.546 324.449C478.167 324.484 479.508 323.278 479.542 321.755L479.668 315.998L487.939 316.179C487.934 316.236 487.928 316.293 487.926 316.351L487.478 336.77C487.445 338.293 488.732 339.557 490.353 339.592C491.974 339.628 493.315 338.422 493.348 336.899L493.45 332.265L505.006 346.291L504.694 360.508C504.661 362.031 505.947 363.295 507.568 363.33C509.19 363.366 510.531 362.159 510.564 360.636L511.528 316.697L529.049 317.081C530.67 317.117 532.011 315.91 532.044 314.387L532.344 300.74C532.363 299.82 531.895 298.95 531.093 298.42ZM393.376 280.9L504.473 283.338L527.394 299.689L368.375 296.201L393.376 280.9ZM401.204 314.448L401.05 321.465L388.891 334.971L389.35 314.016L401.217 314.276C401.212 314.334 401.206 314.39 401.204 314.448ZM475.743 321.941L419.693 320.712L419.133 314.669L475.876 315.914L475.743 321.941ZM505.198 337.523L493.642 323.497L493.796 316.479C493.797 316.422 493.793 316.365 493.79 316.307L505.657 316.568L505.198 337.523ZM365.5 310.398L365.758 298.633L529.902 302.234L529.644 313.999L365.5 310.398Z" fill="black"/>
<path d="M403.63 284.152C401.033 284.12 398.911 284.763 398.934 282.867L399.471 239.648C399.494 237.752 401.627 236.236 404.224 236.269L490.884 237.344C493.481 237.376 495.575 238.944 495.552 240.84L495.015 284.059C494.992 285.955 492.887 285.26 490.29 285.227L403.63 284.152Z" fill="url(#paint0_linear_2_260)"/>
<path d="M403.611 285.662C401.544 285.636 399.878 284.388 399.896 282.88L400.433 239.661C400.451 238.152 402.148 236.946 404.216 236.971L490.875 238.047C492.943 238.072 494.608 239.32 494.59 240.829L494.053 284.048C494.035 285.556 492.338 286.763 490.271 286.737L403.611 285.662Z" fill="url(#paint1_linear_2_260)"/>
<path d="M493.412 284.04C493.397 285.293 491.993 286.291 490.277 286.269L403.618 285.194C401.901 285.173 400.522 284.14 400.538 282.888L401.074 239.669C401.09 238.416 402.494 237.418 404.21 237.44L490.87 238.515C492.586 238.536 493.964 239.569 493.949 240.821L493.412 284.04Z" fill="black"/>
<path d="M401.187 281.735L493.663 282.882L510.732 287.594L381.95 285.996L401.187 281.735Z" fill="#D9D9D9"/>
<path d="M511.898 291.042C511.888 291.841 508.519 292.447 507.237 292.431L386.532 290.933C385.25 290.917 381.898 290.228 381.908 289.429C381.918 288.631 382.965 287.996 384.247 288.012L509.594 289.568C510.876 289.584 511.906 290.244 511.896 291.042L511.898 291.042Z" fill="url(#paint2_linear_2_260)"/>
<path d="M511.946 287.15L381.958 285.537L381.922 288.43L511.91 290.043L511.946 287.15Z" fill="url(#paint3_linear_2_260)"/>
<path d="M491.628 240.535L403.423 239.44L402.94 278.407L491.145 279.502L491.628 240.535Z" fill="#808080"/>
<path d="M505.797 286.722C505.796 286.827 505.579 286.91 505.313 286.907L503.001 286.878C502.735 286.875 502.521 286.787 502.522 286.682C502.523 286.577 502.739 286.495 503.006 286.498L505.318 286.527C505.584 286.53 505.799 286.617 505.798 286.723L505.797 286.722Z" fill="black"/>
<path d="M455.955 283.433L438.026 283.211C437.641 283.206 437.33 282.989 437.333 282.727L437.339 282.251L456.665 282.49L456.66 282.966C456.656 283.228 456.339 283.438 455.955 283.434L455.955 283.433Z" fill="#3E3D3D"/>
<path d="M235.012 25.0141C235.034 27.318 234.962 29.7828 234.796 32.4086C234.63 35.0343 234.444 37.3563 234.24 39.3743C234.097 41.1038 233.812 43.0107 233.384 45.095C232.956 47.1793 232.43 48.9765 231.804 50.4867C231.179 51.9648 230.53 52.7072 229.858 52.7138C229.442 52.7178 228.955 52.0025 228.397 50.5679C227.839 49.1333 227.114 47.0283 226.223 44.2528L225.381 41.5729C224.787 39.7226 224.129 37.857 223.406 35.9759C222.684 34.0629 222.126 32.7083 221.735 31.9121L219.74 38.9879C217.915 45.47 216.582 49.9152 215.742 52.3235C215.71 52.3879 215.616 52.6128 215.46 52.9983C215.336 53.4156 215.099 53.7219 214.749 53.9173C214.399 54.1447 213.936 54.2613 213.36 54.2669C213.232 54.2681 212.952 53.4388 212.52 51.779C212.12 50.1188 211.702 48.2828 211.266 46.2709C210.166 41.7055 209.582 39.295 209.516 39.0397C208.717 35.9113 208.054 33.5657 207.527 32.0028C207.032 30.4395 206.59 29.4998 206.203 29.1836C205.655 28.7729 205.379 28.3276 205.374 27.8476C205.372 27.6236 205.53 27.382 205.847 27.1229C206.196 26.8315 206.595 26.6836 207.043 26.6792C207.427 26.6755 207.731 26.7045 207.956 26.7663C208.18 26.7961 208.357 26.9224 208.487 27.1452C208.943 27.8767 209.837 30.9722 211.17 36.4314C211.302 36.8461 211.468 37.4685 211.668 38.2986C212.368 41.0759 212.951 43.4704 213.419 45.4819C213.685 46.5033 213.902 47.4293 214.07 48.2597C214.27 49.0578 214.436 49.6642 214.568 50.0789C214.597 49.7906 214.906 48.6675 215.495 46.7097C216.519 43.4355 217.308 40.6597 217.862 38.3822C218.447 36.0724 218.988 34.163 219.486 32.6541C219.983 31.1131 220.373 30.1493 220.658 29.7625C220.847 29.5366 221.102 29.3421 221.42 29.179C221.77 28.9836 222.105 28.8843 222.425 28.8812C222.649 28.879 222.826 28.9573 222.955 29.116C223.085 29.2428 223.198 29.4177 223.297 29.6407C223.395 29.8638 223.493 30.0548 223.59 30.2139C223.916 30.8507 224.441 32.1897 225.165 34.2307C225.921 36.2714 226.597 38.2809 227.192 40.2592L227.886 42.4605C228.945 46.0024 229.72 48.3629 230.211 49.5422C231.309 47.2913 232.041 43.54 232.405 38.2882C232.61 36.3021 232.695 33.5012 232.659 29.8853L232.564 25.038C232.56 24.622 232.605 24.3336 232.7 24.1727C232.794 23.9797 233.017 23.8815 233.369 23.8781C233.753 23.8744 234.122 23.9988 234.476 24.2513C234.831 24.4719 235.009 24.7261 235.012 25.0141ZM258.921 40.2375C259.145 40.2353 259.259 40.4742 259.264 40.9541C259.27 41.5301 258.85 42.7983 258.005 44.7586C257.192 46.7186 255.93 48.5391 254.218 50.2198C252.538 51.9003 250.451 52.7527 247.955 52.7771C245.907 52.7971 244.189 52.1738 242.8 50.9073C241.412 49.6408 240.705 47.6796 240.679 45.0238C240.654 42.5279 241.206 40.0584 242.335 37.6152C243.462 35.1401 244.947 33.1255 246.788 31.5715C248.628 29.9854 250.541 29.1827 252.525 29.1634C253.708 29.1518 254.703 29.4141 255.508 29.9503C256.345 30.4541 256.769 31.202 256.778 32.194C256.789 33.3139 256.16 34.4081 254.89 35.4766C253.653 36.5447 252.03 37.4886 250.022 38.3082C248.014 39.1279 245.939 39.7242 243.799 40.0971C243.429 41.5727 243.251 43.0146 243.265 44.4225C243.283 46.2784 243.729 47.7141 244.603 48.7296C245.509 49.7448 246.778 50.2445 248.41 50.2285C250.874 50.2045 252.865 49.305 254.384 47.5301C255.903 45.7552 257.163 43.7588 258.166 41.5409C258.228 41.4123 258.338 41.1712 258.495 40.8176C258.651 40.4321 258.793 40.2387 258.921 40.2375ZM254.624 32.743C254.619 32.2311 254.343 31.8337 253.796 31.5511C253.281 31.2681 252.672 31.13 251.968 31.1369C250.752 31.1488 249.588 31.5602 248.476 32.371C247.363 33.1819 246.429 34.1511 245.672 35.2786C244.947 36.4057 244.477 37.4023 244.261 38.2685C245.731 38.0941 247.279 37.663 248.905 36.9751C250.53 36.2872 251.883 35.5379 252.963 34.7274C254.075 33.9165 254.629 33.255 254.624 32.743ZM267.805 51.0953C267.808 51.4152 267.603 51.6733 267.188 51.8693C266.774 52.0654 266.311 52.1659 265.799 52.1709C265.415 52.1746 265.043 51.7302 264.682 50.8377C264.353 49.9129 264.18 48.5225 264.162 46.6666C264.158 43.0505 264.164 38.6822 264.178 33.5618C264.224 28.4411 264.266 24.5845 264.305 21.992C264.328 21.0638 264.479 20.1982 264.759 19.3955C265.072 18.5924 265.612 18.1871 266.38 18.1796C266.636 18.1771 266.797 18.3195 266.864 18.6069C266.962 18.8619 267.015 19.3734 267.023 20.1414C267.023 20.1734 267.008 20.2856 266.978 20.4779C266.98 20.6379 266.983 20.9418 266.987 21.3898C266.493 29.811 266.285 38.0215 266.363 46.0211C266.373 47.045 266.608 48.1308 267.067 49.2784C267.558 50.4256 267.804 51.0313 267.805 51.0953ZM287.211 41.6414C287.213 41.8334 286.883 42.4286 286.22 43.4271C285.59 44.4253 284.943 45.3277 284.279 46.1342C282.634 48.1663 281.146 49.733 279.812 50.834C278.511 51.9348 277.14 52.4922 275.7 52.5062C274.485 52.5181 273.471 52 272.661 50.9518C271.883 49.9034 271.487 48.6912 271.474 47.3153C271.454 45.2674 271.972 42.6702 273.03 39.5237C274.087 36.3772 275.436 33.6439 277.078 31.3238C278.719 29.0037 280.372 27.8355 282.036 27.8192C282.74 27.8123 283.35 28.0624 283.867 28.5694C284.158 28.8546 284.434 29.2359 284.694 29.7134C284.955 30.1908 285.087 30.6216 285.091 31.0055C285.096 31.5495 285.023 32.1903 284.87 32.9278C284.749 33.633 284.608 33.9864 284.448 33.988C284.128 33.9911 283.918 33.8171 283.819 33.4661C283.72 33.115 283.651 32.6677 283.614 32.124C283.51 31.293 283.408 30.75 283.31 30.4949C283.211 30.2079 283.066 30.0653 282.874 30.0671C281.37 30.0818 279.924 31.152 278.537 33.2776C277.149 35.3713 276.021 37.8144 275.152 40.607C274.283 43.3676 273.856 45.4999 273.871 47.0038C273.891 49.1157 274.606 50.1648 276.014 50.1511C277.037 50.1411 277.963 49.876 278.79 49.3559C279.649 48.8355 280.538 48.1068 281.457 47.1698C283.167 45.393 284.497 43.86 285.444 42.5707C285.507 42.474 285.681 42.2323 285.965 41.8455C286.281 41.4264 286.503 41.2163 286.631 41.215C287.015 41.2113 287.208 41.3534 287.211 41.6414ZM307.141 42.0708C307.153 43.3188 306.703 44.7632 305.791 46.4042C304.879 48.0452 303.581 49.4659 301.896 50.6664C300.212 51.8349 298.281 52.4298 296.105 52.4511C293.962 52.472 292.372 51.8955 291.336 50.7215C290.301 49.5476 289.774 48.0806 289.757 46.3207C289.742 44.7848 289.996 42.8782 290.517 40.601C291.071 38.3235 291.851 36.2838 292.858 34.4819C292.921 34.3533 293.172 33.8868 293.612 33.0825C294.084 32.2458 294.606 31.6167 295.178 31.1951C295.749 30.7415 296.355 30.5116 296.995 30.5053C297.283 30.5025 297.54 30.58 297.766 30.7378C298.023 30.8633 298.152 31.038 298.155 31.262C298.155 31.326 298.061 31.487 297.871 31.7448C297.714 31.9704 297.587 32.1476 297.493 32.2765C296.417 33.5991 295.55 34.9036 294.891 36.1901C294.011 37.8308 293.322 39.4536 292.826 41.0585C292.362 42.6631 292.139 44.4094 292.157 46.2973C292.182 48.8252 293.73 50.0741 296.802 50.0441C298.242 50.0301 299.566 49.6011 300.774 48.7573C302.013 47.9132 302.996 46.8955 303.72 45.7044C304.444 44.4813 304.801 43.3737 304.792 42.3818C304.781 41.2618 304.403 40.2895 303.659 39.4647C302.915 38.6399 301.898 37.7698 300.609 36.8543C299.771 36.2545 299.159 35.7644 298.771 35.3842C298.383 35.004 298.188 34.6859 298.186 34.4299C298.182 34.0459 298.451 33.7393 298.993 33.51C299.534 33.2487 300.173 33.1144 300.909 33.1072C301.325 33.1032 301.597 33.1325 301.726 33.1953C301.854 33.226 301.919 33.3054 301.92 33.4334C301.921 33.4974 301.858 33.61 301.731 33.7712C301.637 33.9002 301.59 34.0126 301.591 34.1086C301.592 34.2046 301.915 34.5215 302.56 35.0592C303.85 36.1027 304.933 37.1642 305.807 38.2437C306.682 39.3232 307.126 40.5989 307.141 42.0708ZM341.395 51.1929C341.398 51.5769 341.273 51.8981 341.02 52.1566C340.767 52.4471 340.432 52.5943 340.016 52.5984C339.44 52.604 339.149 52.3189 339.144 51.7429C339.081 45.2792 338.824 40.3375 338.375 36.9177C337.925 33.4659 337.189 31.745 336.165 31.755C334.437 31.7719 331.968 37.8283 328.758 49.9242L328.758 49.9722C328.762 50.3562 328.637 50.6934 328.384 50.9839C328.13 51.2424 327.796 51.3736 327.38 51.3777C326.804 51.3833 326.513 51.0982 326.507 50.5222C326.495 49.2422 326.539 47.2577 326.641 44.5686C326.74 41.5595 326.781 39.191 326.764 37.4631C326.74 35.0632 326.644 33.368 326.474 32.3776C326.336 31.3549 326.027 30.8459 325.547 30.8506C324.459 30.8612 323.103 32.8746 321.478 36.8906C319.853 40.8747 318.155 45.5795 316.384 51.005L315.964 52.2572C315.839 52.5784 315.65 52.8523 315.396 53.0788C315.174 53.3049 314.919 53.4194 314.631 53.4223C314.247 53.426 313.991 53.3965 313.862 53.3338C313.734 53.271 313.652 53.0798 313.617 52.7601C313.441 51.1938 313.293 49.0991 313.171 46.4762C313.101 45.8048 313.026 44.7015 312.947 43.1662C312.574 37.7616 312.25 34.1166 311.976 32.2312C311.701 30.3138 311.563 29.2431 311.561 29.0191C311.558 28.7631 311.683 28.4578 311.936 28.1034C312.188 27.7489 312.427 27.5705 312.651 27.5684C313.163 27.5634 313.582 27.9273 313.909 28.6601C314.073 29.0105 314.262 30.4168 314.478 32.8788C314.695 35.3408 314.884 38.3951 315.048 42.0416L315.36 49.3829C317.066 43.926 318.842 38.9805 320.687 34.5462C322.532 30.08 324.238 27.8393 325.806 27.8239C326.862 27.8136 327.589 28.5746 327.988 30.1068C328.387 31.6389 328.601 33.8609 328.629 36.7728C328.644 38.3087 328.634 40.5169 328.598 43.3974L328.571 45.6058C329.839 41.0172 331.097 37.1647 332.347 34.0484C333.628 30.9317 334.925 29.367 336.237 29.3542C339.533 29.322 341.252 36.6016 341.395 51.1929ZM365.088 39.201C365.312 39.1988 365.426 39.4377 365.431 39.9177C365.436 40.4937 365.017 41.7618 364.172 43.7222C363.359 45.6822 362.097 47.5026 360.385 49.1834C358.705 50.8639 356.618 51.7163 354.122 51.7407C352.074 51.7607 350.356 51.1374 348.967 49.8709C347.579 48.6044 346.872 46.6432 346.846 43.9873C346.821 41.4914 347.373 39.0219 348.501 36.5788C349.629 34.1037 351.114 32.0891 352.955 30.5351C354.795 28.949 356.707 28.1463 358.691 28.1269C359.875 28.1154 360.87 28.3777 361.675 28.9138C362.512 29.4177 362.935 30.1656 362.945 31.1576C362.956 32.2775 362.327 33.3717 361.057 34.4401C359.819 35.5083 358.197 36.4522 356.188 37.2718C354.18 38.0914 352.106 38.6877 349.966 39.0606C349.596 40.5363 349.418 41.9781 349.432 43.3861C349.45 45.242 349.896 46.6777 350.77 47.6932C351.676 48.7084 352.945 49.208 354.577 49.1921C357.041 49.1681 359.032 48.2686 360.551 46.4937C362.069 44.7188 363.33 42.7224 364.332 40.5045C364.395 40.3758 364.505 40.1348 364.661 39.7812C364.818 39.3957 364.96 39.2023 365.088 39.201ZM360.79 31.7066C360.785 31.1946 360.509 30.7973 359.963 30.5146C359.448 30.2317 358.839 30.0936 358.135 30.1005C356.919 30.1123 355.755 30.5237 354.642 31.3346C353.53 32.1455 352.596 33.1147 351.839 34.2421C351.114 35.3693 350.643 36.3659 350.428 37.232C351.898 37.0577 353.446 36.6265 355.071 35.9386C356.697 35.2507 358.05 34.5015 359.13 33.6909C360.242 32.88 360.795 32.2186 360.79 31.7066ZM404.178 31.187C404.184 31.731 403.948 32.1493 403.47 32.442C403.025 32.7344 402.196 32.9665 400.981 33.1383C398.042 33.6791 396.397 33.9831 396.046 34.0506L392.931 34.609C392.947 36.2729 392.98 38.0167 393.03 39.8403C393.112 41.6636 393.208 43.2627 393.317 44.6377C393.463 46.4924 393.701 47.9141 394.031 48.903C394.36 49.8918 394.542 50.45 394.575 50.5777C394.578 50.8977 394.373 51.1877 393.96 51.4478C393.578 51.7395 393.212 51.8871 392.86 51.8905C392.668 51.8924 392.507 51.83 392.378 51.7032C392.249 51.6085 392.135 51.4336 392.037 51.1785C391.84 50.7324 391.64 49.9023 391.436 48.6883C391.265 47.4739 391.124 46.1312 391.013 44.6602C390.904 43.3492 390.81 41.8301 390.729 40.1028C390.679 38.3432 390.647 36.6474 390.631 35.0155C388.842 35.321 387.005 35.6909 385.122 36.1253C383.429 36.4938 382.423 36.6797 382.103 36.6828C381.719 36.6866 381.35 36.5782 380.996 36.3576C380.673 36.1367 380.51 35.8343 380.507 35.4503C380.503 35.0343 380.644 34.761 380.931 34.6301C381.217 34.4993 381.697 34.4307 382.369 34.4241C382.849 34.4194 383.552 34.3325 384.478 34.1635C385.404 33.9624 385.995 33.8287 386.251 33.7622C388.39 33.3253 389.844 33.0391 390.61 32.9036C390.604 32.2316 390.563 31.352 390.489 30.2646C390.41 28.7933 390.367 27.6737 390.36 26.9057C390.348 25.6578 390.37 24.6975 390.428 24.0249C390.517 23.32 390.671 22.6945 390.889 22.1483C391.139 21.5059 391.616 21.1812 392.32 21.1743C392.608 21.1715 392.8 21.2176 392.897 21.3127C392.994 21.4078 393.044 21.5833 393.046 21.8393C393.048 22.0313 392.974 22.592 392.823 23.5215C392.672 24.451 392.604 25.6838 392.619 27.2197C392.631 28.4036 392.675 29.7313 392.754 31.2026L392.815 32.498C394.252 32.26 397.094 31.6402 401.341 30.6387C401.596 30.5722 401.802 30.3462 401.958 29.9607C402.146 29.5748 402.337 29.3809 402.529 29.3791C402.881 29.3756 403.235 29.5802 403.591 29.9927C403.978 30.373 404.174 30.7711 404.178 31.187ZM423.385 40.936C423.397 42.184 422.947 43.6284 422.035 45.2694C421.123 46.9104 419.825 48.3311 418.141 49.5316C416.456 50.7001 414.526 51.295 412.35 51.3162C410.206 51.3372 408.616 50.7607 407.581 49.5867C406.545 48.4128 406.019 46.9458 406.002 45.1859C405.987 43.65 406.24 41.7434 406.762 39.4662C407.316 37.1887 408.096 35.149 409.102 33.3471C409.165 33.2185 409.417 32.752 409.857 31.9477C410.329 31.111 410.85 30.4819 411.422 30.0603C411.994 29.6067 412.6 29.3768 413.24 29.3705C413.528 29.3677 413.784 29.4452 414.01 29.603C414.267 29.7285 414.397 29.9032 414.399 30.1272C414.4 30.1912 414.305 30.3521 414.116 30.61C413.958 30.8356 413.832 31.0128 413.737 31.1417C412.662 32.4643 411.795 33.7688 411.135 35.0553C410.255 36.696 409.567 38.3188 409.071 39.9237C408.606 41.5283 408.383 43.2746 408.402 45.1625C408.426 47.6904 409.975 48.9393 413.046 48.9093C414.486 48.8953 415.81 48.4663 417.018 47.6225C418.258 46.7783 419.24 45.7607 419.964 44.5696C420.688 43.3465 421.046 42.2389 421.036 41.247C421.025 40.127 420.648 39.1547 419.903 38.3299C419.159 37.5051 418.143 36.635 416.854 35.7195C416.016 35.1197 415.403 34.6296 415.015 34.2494C414.628 33.8692 414.433 33.5511 414.43 33.2951C414.426 32.9111 414.695 32.6044 415.237 32.3751C415.779 32.1139 416.417 31.9796 417.153 31.9724C417.569 31.9684 417.842 31.9977 417.97 32.0605C418.098 32.0912 418.163 32.1706 418.165 32.2986C418.165 32.3626 418.102 32.4752 417.976 32.6364C417.881 32.7654 417.834 32.8778 417.835 32.9738C417.836 33.0698 418.159 33.3867 418.804 33.9244C420.095 34.9679 421.177 36.0293 422.052 37.1089C422.926 38.1884 423.371 39.4641 423.385 40.936ZM471.42 49.9235C471.423 50.3075 471.298 50.6288 471.045 50.8872C470.792 51.1777 470.457 51.325 470.041 51.3291C469.465 51.3347 469.174 51.0495 469.169 50.4735C469.106 44.0098 468.85 39.0681 468.4 35.6483C467.95 32.1966 467.214 30.4757 466.19 30.4857C464.462 30.5025 461.993 36.5589 458.783 48.6548L458.783 48.7028C458.787 49.0868 458.662 49.4241 458.409 49.7145C458.155 49.973 457.821 50.1043 457.405 50.1084C456.829 50.114 456.538 49.8288 456.532 49.2528C456.52 47.9729 456.564 45.9884 456.666 43.2992C456.765 40.2901 456.806 37.9216 456.789 36.1937C456.765 33.7938 456.669 32.0987 456.499 31.1083C456.361 30.0856 456.052 29.5766 455.572 29.5813C454.484 29.5919 453.128 31.6052 451.503 35.6213C449.878 39.6053 448.18 44.3101 446.409 49.7357L445.989 50.9878C445.864 51.3091 445.675 51.5829 445.421 51.8094C445.199 52.0356 444.944 52.1501 444.656 52.1529C444.272 52.1567 444.016 52.1272 443.887 52.0644C443.759 52.0017 443.677 51.8105 443.642 51.4908C443.466 49.9244 443.318 47.8298 443.196 45.2068C443.126 44.5355 443.051 43.4322 442.972 41.8969C442.599 36.4922 442.276 32.8472 442.001 30.9618C441.726 29.0444 441.588 27.9737 441.586 27.7497C441.583 27.4937 441.708 27.1885 441.961 26.834C442.213 26.4795 442.452 26.3012 442.676 26.299C443.188 26.294 443.607 26.6579 443.934 27.3908C444.098 27.7412 444.288 29.1474 444.504 31.6094C444.72 34.0714 444.909 37.1257 445.073 40.7723L445.385 48.1136C447.092 42.6567 448.867 37.7111 450.712 33.2769C452.557 28.8107 454.263 26.5699 455.831 26.5546C456.887 26.5443 457.614 27.3052 458.013 28.8374C458.412 30.3696 458.626 32.5916 458.654 35.5035C458.669 37.0394 458.659 39.2476 458.623 42.1281L458.596 44.3365C459.864 39.7479 461.122 35.8954 462.372 32.779C463.653 29.6624 464.95 28.0977 466.262 28.0848C469.558 28.0527 471.277 35.3322 471.42 49.9235ZM492.769 28.9781C492.776 29.7141 492.616 31.3157 492.288 33.7831C491.932 36.6027 491.739 38.1886 491.711 38.5409C491.333 42.4808 491.058 45.4916 490.887 47.5734C490.747 49.6229 490.685 51.4796 490.701 53.1435C490.715 54.5194 490.821 55.6064 491.021 56.4045C491.253 57.2023 491.483 57.8241 491.711 58.2699C491.972 58.7473 492.103 59.0341 492.104 59.1301C492.106 59.4181 491.853 59.6765 491.343 59.9055C490.833 60.1345 490.306 60.2517 489.762 60.257C489.347 60.261 489.005 59.7043 488.738 58.5869C488.503 57.4691 488.374 55.7263 488.351 53.3584C488.334 51.5665 488.486 49.1489 488.808 46.1056L489.464 39.4749C488.616 41.1473 487.56 42.7576 486.295 44.3061C485.061 45.8222 483.773 46.5868 482.429 46.5999C481.181 46.6121 480.05 45.5351 479.037 43.3689C478.024 41.2027 477.216 38.7464 476.613 36.0002C476.042 33.2536 475.751 31.2404 475.738 29.9604C475.73 29.1605 475.966 28.7581 476.446 28.7535C477.15 28.7466 477.605 29.3982 477.809 30.7082C479.112 39.592 480.852 44.0232 483.027 44.0019C483.891 43.9935 484.64 43.6502 485.274 42.972C485.939 42.2614 486.712 41.1818 487.594 39.7332C488.003 39.0571 488.443 38.1568 488.912 37.0322C489.381 35.9075 489.74 34.976 489.988 34.2375L490.277 29.3865C490.334 28.6499 490.425 28.137 490.55 27.8477C490.675 27.5265 490.929 27.364 491.313 27.3603C491.633 27.3571 491.955 27.546 492.279 27.9269C492.602 28.2757 492.766 28.6261 492.769 28.9781ZM527.525 29.6469C527.528 29.9349 527.323 30.2729 526.911 30.6609C526.531 31.0167 526.196 31.1959 525.908 31.1987C525.684 31.2009 525.46 31.1071 525.234 30.9173C525.04 30.7272 524.813 30.4574 524.554 30.1079C524.327 29.7901 524.02 29.5211 523.634 29.3009C523.28 29.0803 522.911 28.9719 522.527 28.9756C521.599 28.9847 520.363 30.2288 518.819 32.708C517.275 35.1552 515.769 38.2421 514.301 41.9686C514.34 42.7042 514.397 43.6317 514.472 44.751C514.579 45.87 514.651 46.7014 514.689 47.245L514.851 49.1635C514.856 49.6115 514.763 49.9964 514.575 50.3183C514.386 50.6721 514.036 50.8516 513.524 50.8566C512.98 50.8619 512.621 50.1454 512.447 48.707C512.272 47.2366 512.156 45.1097 512.096 42.3261C512.058 41.6224 512.016 40.6148 511.971 39.3032C511.958 37.9912 511.911 36.4236 511.829 34.6003C511.706 31.8494 511.639 29.882 511.627 28.698C511.62 27.9621 512.065 27.5897 512.96 27.581C513.504 27.5757 513.827 27.8125 513.927 28.2916C514.06 28.7383 514.132 29.6176 514.145 30.9296L514.22 38.5612C515.156 36.0879 516.175 33.9499 517.277 32.147C518.38 30.3442 519.454 28.9736 520.501 28.0354C521.58 27.0648 522.535 26.5754 523.367 26.5673C524.071 26.5605 524.745 26.7139 525.388 27.0276C526.031 27.3414 526.547 27.7523 526.936 28.2606C527.324 28.7368 527.521 29.1989 527.525 29.6469ZM547.692 39.7225C547.704 40.9704 547.254 42.4149 546.342 44.0559C545.43 45.6969 544.132 47.1176 542.447 48.3181C540.763 49.4866 538.832 50.0815 536.656 50.1027C534.513 50.1236 532.923 49.5471 531.887 48.3732C530.852 47.1992 530.326 45.7323 530.308 43.9724C530.293 42.4365 530.547 40.5299 531.069 38.2527C531.622 35.9752 532.402 33.9355 533.409 32.1336C533.472 32.0049 533.723 31.5385 534.163 30.7341C534.635 29.8975 535.157 29.2684 535.729 28.8468C536.301 28.3932 536.906 28.1632 537.546 28.157C537.834 28.1542 538.091 28.2317 538.317 28.3895C538.574 28.515 538.704 28.6897 538.706 28.9137C538.706 28.9777 538.612 29.1386 538.422 29.3965C538.265 29.622 538.138 29.7993 538.044 29.9282C536.968 31.2508 536.101 32.5553 535.442 33.8418C534.562 35.4825 533.873 37.1053 533.377 38.7102C532.913 40.3148 532.69 42.0611 532.708 43.949C532.733 46.4768 534.281 47.7258 537.353 47.6958C538.793 47.6817 540.117 47.2528 541.325 46.409C542.564 45.5648 543.547 44.5472 544.271 43.3561C544.995 42.1329 545.352 41.0254 545.343 40.0334C545.332 38.9135 544.954 37.9411 544.21 37.1164C543.466 36.2916 542.449 35.4215 541.16 34.506C540.323 33.9062 539.71 33.4161 539.322 33.0359C538.934 32.6557 538.739 32.3375 538.737 32.0816C538.733 31.6976 539.002 31.3909 539.544 31.1616C540.085 30.9003 540.724 30.7661 541.46 30.7589C541.876 30.7548 542.148 30.7842 542.277 30.8469C542.405 30.8777 542.47 30.9571 542.471 31.085C542.472 31.149 542.409 31.2617 542.282 31.4229C542.188 31.5518 542.141 31.6643 542.142 31.7603C542.143 31.8563 542.466 32.1732 543.111 32.7109C544.401 33.7543 545.484 34.8158 546.358 35.8953C547.233 36.9748 547.677 38.2506 547.692 39.7225ZM568.222 39.5221C568.234 40.77 567.784 42.2145 566.872 43.8555C565.96 45.4964 564.662 46.9172 562.978 48.1177C561.293 49.2862 559.363 49.8811 557.187 49.9023C555.043 49.9232 553.453 49.3467 552.418 48.1728C551.382 46.9988 550.856 45.5319 550.839 43.772C550.824 42.236 551.077 40.3295 551.599 38.0523C552.153 35.7748 552.933 33.7351 553.939 31.9331C554.002 31.8045 554.253 31.338 554.694 30.5337C555.165 29.6971 555.687 29.0679 556.259 28.6463C556.831 28.1927 557.437 27.9628 558.077 27.9566C558.365 27.9538 558.621 28.0312 558.847 28.1891C559.104 28.3145 559.234 28.4893 559.236 28.7133C559.237 28.7773 559.142 28.9382 558.953 29.1961C558.795 29.4216 558.669 29.5989 558.574 29.7278C557.499 31.0504 556.631 32.3549 555.972 33.6414C555.092 35.282 554.404 36.9048 553.907 38.5098C553.443 40.1144 553.22 41.8606 553.238 43.7485C553.263 46.2764 554.811 47.5254 557.883 47.4954C559.323 47.4813 560.647 47.0524 561.855 46.2085C563.095 45.3644 564.077 44.3468 564.801 43.1556C565.525 41.9325 565.883 40.825 565.873 39.833C565.862 38.7131 565.484 37.7407 564.74 36.9159C563.996 36.0912 562.98 35.221 561.691 34.3056C560.853 33.7057 560.24 33.2157 559.852 32.8355C559.465 32.4552 559.269 32.1371 559.267 31.8811C559.263 31.4971 559.532 31.1905 560.074 30.9612C560.615 30.6999 561.254 30.5657 561.99 30.5585C562.406 30.5544 562.678 30.5838 562.807 30.6465C562.935 30.6773 563 30.7566 563.001 30.8846C563.002 30.9486 562.939 31.0612 562.813 31.2225C562.718 31.3514 562.671 31.4639 562.672 31.5599C562.673 31.6559 562.996 31.9727 563.641 32.5105C564.932 33.5539 566.014 34.6154 566.889 35.6949C567.763 36.7744 568.208 38.0501 568.222 39.5221ZM602.476 48.6441C602.48 49.0281 602.355 49.3493 602.101 49.6078C601.848 49.8983 601.514 50.0456 601.098 50.0497C600.522 50.0553 600.231 49.7701 600.225 49.1941C600.162 42.7304 599.906 37.7887 599.456 34.3689C599.007 30.9172 598.27 29.1963 597.246 29.2063C595.518 29.2231 593.049 35.2795 589.839 47.3754L589.839 47.4234C589.843 47.8074 589.718 48.1446 589.465 48.4351C589.212 48.6936 588.877 48.8249 588.461 48.829C587.885 48.8346 587.594 48.5494 587.589 47.9734C587.576 46.6935 587.621 44.709 587.722 42.0198C587.821 39.0107 587.862 36.6422 587.845 34.9143C587.822 32.5144 587.725 30.8193 587.555 29.8289C587.417 28.8062 587.109 28.2972 586.629 28.3019C585.541 28.3125 584.184 30.3258 582.559 34.3419C580.934 38.3259 579.236 43.0307 577.465 48.4563L577.045 49.7084C576.92 50.0297 576.731 50.3035 576.477 50.53C576.255 50.7562 576 50.8707 575.712 50.8735C575.328 50.8772 575.072 50.8477 574.943 50.785C574.815 50.7223 574.733 50.531 574.698 50.2114C574.523 48.645 574.374 46.5504 574.252 43.9274C574.182 43.2561 574.107 42.1528 574.028 40.6174C573.655 35.2128 573.332 31.5678 573.057 29.6824C572.783 27.765 572.644 26.6943 572.642 26.4703C572.639 26.2143 572.765 25.9091 573.017 25.5546C573.27 25.2001 573.508 25.0218 573.732 25.0196C574.244 25.0146 574.663 25.3785 574.991 26.1114C575.154 26.4618 575.344 27.868 575.56 30.33C575.776 32.792 575.966 35.8463 576.129 39.4929L576.441 46.8342C578.148 41.3773 579.924 36.4317 581.768 31.9975C583.613 27.5313 585.319 25.2905 586.887 25.2752C587.943 25.2649 588.67 26.0258 589.069 27.558C589.468 29.0902 589.682 31.3122 589.71 34.2241C589.725 35.76 589.715 37.9682 589.679 40.8487L589.653 43.057C590.92 38.4685 592.178 34.616 593.428 31.4996C594.71 28.383 596.006 26.8182 597.318 26.8054C600.614 26.7733 602.333 34.0528 602.476 48.6441ZM612.03 19.1735C612.031 19.2695 611.975 20.086 611.862 21.6232C611.428 26.3317 611.234 31.0378 611.279 35.7416C611.289 36.7655 611.364 37.8049 611.502 38.8596C611.64 39.9143 611.71 40.5376 611.712 40.7296C611.72 41.4976 611.403 41.8847 610.763 41.8909C610.539 41.8931 610.297 41.6394 610.036 41.13C609.775 40.5885 609.544 39.9027 609.344 39.0726C609.175 38.2102 609.087 37.3151 609.078 36.3871C609.053 33.8272 609.131 28.7062 609.312 21.0241C609.335 20.0958 609.486 19.2303 609.766 18.4275C610.079 17.6244 610.619 17.2191 611.387 17.2116C611.643 17.2091 611.804 17.3516 611.871 17.6389C611.969 17.894 612.022 18.4055 612.03 19.1735ZM613.958 49.4921C613.963 49.9721 613.437 50.2172 612.381 50.2275C611.773 50.2334 611.275 50.0463 610.887 49.6661C610.5 49.3178 610.224 48.9205 610.06 48.4741C609.895 47.9957 609.811 47.6285 609.809 47.3725C609.805 47.0205 609.962 46.683 610.279 46.3598C610.628 46.0364 610.978 45.873 611.33 45.8696C611.554 45.8674 611.731 45.9617 611.861 46.1524C611.991 46.3431 612.138 46.6137 612.301 46.9641C612.563 47.5376 612.822 47.9191 613.08 48.1086C613.338 48.2981 613.549 48.552 613.712 48.8705C613.875 49.1569 613.957 49.3641 613.958 49.4921Z" fill="black"/>
<defs>
<linearGradient id="paint0_linear_2_260" x1="400.276" y1="236.907" x2="472.033" y2="306.669" gradientUnits="userSpaceOnUse">
<stop stop-color="#999999"/>
<stop offset="1" stop-color="#4D4D4D"/>
</linearGradient>
<linearGradient id="paint1_linear_2_260" x1="494.138" y1="271.312" x2="406.911" y2="239.171" gradientUnits="userSpaceOnUse">
<stop stop-color="#999999"/>
<stop offset="1" stop-color="#666666"/>
</linearGradient>
<linearGradient id="paint2_linear_2_260" x1="382.76" y1="290.93" x2="511.35" y2="286.816" gradientUnits="userSpaceOnUse">
<stop stop-color="#666666"/>
<stop offset="0.3031" stop-color="#636363"/>
<stop offset="0.5649" stop-color="#585858"/>
<stop offset="0.8107" stop-color="#464646"/>
<stop offset="1" stop-color="#333333"/>
</linearGradient>
<linearGradient id="paint3_linear_2_260" x1="381.94" y1="286.983" x2="511.928" y2="288.596" gradientUnits="userSpaceOnUse">
<stop stop-color="#666666"/>
<stop offset="0.002" stop-color="#777777"/>
<stop offset="0.0065" stop-color="#999999"/>
<stop offset="0.0114" stop-color="#B5B5B5"/>
<stop offset="0.0167" stop-color="#CBCBCB"/>
<stop offset="0.0224" stop-color="#DADADA"/>
<stop offset="0.0291" stop-color="#E3E3E3"/>
<stop offset="0.0388" stop-color="#E6E6E6"/>
<stop offset="0.0502" stop-color="#D4D4D4"/>
<stop offset="0.0684" stop-color="#BEBEBE"/>
<stop offset="0.0899" stop-color="#ADADAD"/>
<stop offset="0.1166" stop-color="#A2A2A2"/>
<stop offset="0.1539" stop-color="#9B9B9B"/>
<stop offset="0.2577" stop-color="#999999"/>
<stop offset="0.9444" stop-color="#666666"/>
<stop offset="0.9518" stop-color="#7A7A7A"/>
<stop offset="0.9668" stop-color="#AFAFAF"/>
<stop offset="0.9811" stop-color="#E6E6E6"/>
<stop offset="1" stop-color="#333333"/>
</linearGradient>
</defs>
</svg>
