<svg width="850" height="400" viewBox="0 0 850 400" fill="none" xmlns="http://www.w3.org/2000/svg">
<path d="M1 0H0V1H1V0ZM153.74 265.637C153.122 265.894 134.674 269.266 112.744 273.13L112.743 273.124C90.8131 276.988 72.5233 280.249 72.0993 280.372C71.6752 280.495 71.0584 280.326 70.7286 279.996C70.009 279.276 69.9287 276.289 70.6174 275.864C70.8864 275.698 85.6331 273.106 103.388 270.105C121.144 267.104 136.175 264.428 136.791 264.159L137.911 263.669L138.163 75H154.611L154.862 265.168L153.74 265.637ZM89.3223 75.5029C90.3143 75.5029 90.3191 75.8325 90.3191 168.455L90.3195 261.945L70.0129 265.123L70 264.334L87.827 261.546L88.0762 168.604C88.3243 75.9182 88.3299 75.5029 89.3223 75.5029ZM132.988 84.2218C133.913 84.2218 133.93 86.0719 133.807 169.577L133.681 255.46L99.9071 260.908L99.842 259.983L131.439 254.769V170.525C131.439 123.925 131.575 85.4437 131.741 85.0101C131.907 84.5765 132.469 84.2218 132.988 84.2218ZM849 399H850V400H849V399Z" fill="white"/>
</svg>
